<svg width="47" height="47" xmlns="http://www.w3.org/2000/svg">
  <g fill="none" fill-rule="evenodd">
    <path d="M46.45 23.72a22.5 22.5 0 1 1-45 0 22.5 22.5 0 0 1 45 0z" stroke="#FFF"/>
    <path d="M24.56 35.73l-.2-.01a1.72 1.72 0 0 1-.13 0c-1.56 0-2.55-.7-3.52-1.37-.66-.47-1.3-.9-2.03-1.03a6.52 6.52 0 0 0-1.07-.09c-.63 0-1.12.1-1.48.17a3.27 3.27 0 0 1-.55.08c-.16 0-.32-.04-.39-.28a8.51 8.51 0 0 1-.15-.6c-.1-.5-.18-.8-.4-.84-2.46-.38-3.17-.89-3.32-1.25a.47.47 0 0 1-.04-.16.28.28 0 0 1 .23-.29c3.79-.62 5.49-4.45 5.56-4.62a.53.53 0 0 1 0-.01c.24-.47.28-.87.14-1.2-.26-.6-1.1-.88-1.67-1.05a6.35 6.35 0 0 1-.37-.13c-1.12-.44-1.21-.89-1.17-1.12.08-.39.6-.66 1.03-.66.12 0 .22.02.3.06.51.23.96.35 1.36.35.54 0 .77-.22.8-.25l-.04-.8c-.12-1.77-.26-3.98.3-5.24a6.86 6.86 0 0 1 6.37-4.06h.53c1.07 0 4.68.29 6.38 4.06.56 1.26.42 3.47.31 5.24v.08l-.05.72c.03.03.25.23.74.25.37-.01.8-.13 1.27-.35a.97.97 0 0 1 .4-.08c.15 0 .32.03.45.09.39.14.64.4.64.68 0 .26-.2.65-1.17 1.03l-.37.13c-.57.17-1.41.44-1.67 1.05-.15.33-.1.73.13 1.2v.01c.08.17 1.78 4 5.57 4.62.14.02.24.15.23.29a.46.46 0 0 1-.04.16c-.16.36-.86.87-3.33 1.25-.2.03-.28.29-.4.84a8.36 8.36 0 0 1-.15.6c-.05.17-.16.26-.35.26h-.03c-.13 0-.32-.03-.55-.07a7.43 7.43 0 0 0-1.48-.16c-.35 0-.7.03-1.07.1a5.1 5.1 0 0 0-2.03 1.02c-.97.68-1.97 1.37-3.52 1.37" fill="#FFF"/>
  </g>
</svg>
