<svg width="47" height="47" xmlns="http://www.w3.org/2000/svg">
  <g fill="none" fill-rule="evenodd">
    <path d="M23.95 46.22a22.5 22.5 0 1 1 0-45 22.5 22.5 0 0 1 0 45z" stroke="#FFFA28" fill="#FFFC00"/>
    <path d="M24.56 35.73l-.2-.01a1.72 1.72 0 0 1-.13 0c-1.56 0-2.55-.7-3.52-1.37-.66-.47-1.3-.9-2.03-1.03a6.52 6.52 0 0 0-1.07-.09c-.63 0-1.12.1-1.48.17a3.27 3.27 0 0 1-.55.08c-.16 0-.32-.04-.39-.28a8.51 8.51 0 0 1-.15-.6c-.1-.5-.18-.8-.4-.84-2.46-.38-3.17-.89-3.32-1.25a.47.47 0 0 1-.04-.16.28.28 0 0 1 .23-.29c3.79-.62 5.49-4.45 5.56-4.62a.53.53 0 0 1 0-.01c.24-.47.28-.87.14-1.2-.26-.6-1.1-.88-1.67-1.05a6.35 6.35 0 0 1-.37-.13c-1.12-.44-1.21-.89-1.17-1.12.08-.39.6-.66 1.03-.66.12 0 .22.02.3.06.51.23.96.35 1.36.35.54 0 .77-.22.8-.25l-.04-.8c-.12-1.77-.26-3.98.3-5.24a6.86 6.86 0 0 1 6.37-4.06h.53c1.07 0 4.68.29 6.38 4.06.56 1.26.42 3.47.31 5.24v.08l-.05.72c.03.03.25.23.74.25.37-.01.8-.13 1.27-.35a.97.97 0 0 1 .4-.08c.15 0 .32.03.45.09.39.14.64.4.64.68 0 .26-.2.65-1.17 1.03l-.37.13c-.57.17-1.41.44-1.67 1.05-.15.33-.1.73.13 1.2v.01c.08.17 1.78 4 5.57 4.62.14.02.24.15.23.29a.46.46 0 0 1-.04.16c-.16.36-.86.87-3.33 1.25-.2.03-.28.29-.4.84a8.36 8.36 0 0 1-.15.6c-.05.17-.16.26-.35.26h-.03c-.13 0-.32-.03-.55-.07a7.43 7.43 0 0 0-1.48-.16c-.35 0-.7.03-1.07.1a5.1 5.1 0 0 0-2.03 1.02c-.97.68-1.97 1.37-3.52 1.37" fill="#FFF"/>
    <path d="M24.65 11.05h-.53c-1.1 0-4.85.3-6.62 4.23-.59 1.32-.45 3.57-.33 5.37l.04.65c-.1.05-.26.1-.52.1-.35 0-.77-.1-1.24-.32a1 1 0 0 0-.42-.08c-.55 0-1.2.35-1.3.88-.08.39.1.94 1.34 1.43l.39.13c.51.16 1.28.4 1.5.9.1.25.06.58-.13.97l-.02.03c-.07.15-1.7 3.86-5.35 4.45a.55.55 0 0 0-.46.58.73.73 0 0 0 .06.24c.27.64 1.43 1.1 3.52 1.42.07.1.15.43.2.63.04.2.08.4.15.62.06.22.22.47.65.47.17 0 .37-.04.6-.08a7.13 7.13 0 0 1 2.45-.08c.68.12 1.25.52 1.92.98.95.67 2.03 1.43 3.68 1.43h.33c1.64 0 2.72-.76 3.67-1.42a4.88 4.88 0 0 1 1.92-.99 6.32 6.32 0 0 1 2.46.07c.25.05.45.07.6.07h.03a.6.6 0 0 0 .62-.46l.15-.61c.05-.2.12-.54.2-.63 2.09-.32 3.24-.79 3.51-1.42a.73.73 0 0 0 .06-.25.55.55 0 0 0-.46-.57c-3.64-.6-5.28-4.3-5.35-4.45a.4.4 0 0 0-.01-.03c-.2-.4-.24-.72-.13-.97.21-.5.99-.74 1.5-.9l.39-.13c.9-.36 1.36-.8 1.35-1.3 0-.4-.32-.75-.81-.92a1.5 1.5 0 0 0-.57-.11c-.13 0-.32.02-.5.1-.44.2-.83.31-1.16.33a1.03 1.03 0 0 1-.45-.11l.03-.57v-.08c.12-1.8.26-4.05-.33-5.37a7.15 7.15 0 0 0-6.63-4.23zm0 .55c1.01 0 4.49.27 6.12 3.9.54 1.2.4 3.37.3 5.12l-.05.8-.01.1.07.09c.03.03.31.32.94.35h.02c.4-.02.87-.15 1.38-.38a.68.68 0 0 1 .28-.05c.12 0 .24.02.35.06l.01.01c.27.1.45.27.46.42 0 .1-.07.41-1 .78a5.76 5.76 0 0 1-.36.11c-.6.2-1.53.49-1.84 1.21-.17.4-.13.9.14 1.43.11.26 1.85 4.14 5.77 4.78a.18.18 0 0 1-.02.07c-.06.15-.48.69-3.11 1.09-.41.06-.51.52-.63 1.05-.04.19-.08.38-.14.58-.02.06-.02.06-.09.06h-.03c-.12 0-.3-.02-.5-.06a7.75 7.75 0 0 0-1.53-.16c-.37 0-.74.03-1.12.09-.8.13-1.45.59-2.15 1.08-.92.65-1.89 1.32-3.35 1.32h-.22a1.33 1.33 0 0 1-.11 0c-1.47 0-2.43-.67-3.36-1.32-.7-.49-1.34-.95-2.15-1.08a6.9 6.9 0 0 0-1.11-.1c-.65 0-1.16.1-1.54.18-.2.04-.38.07-.5.07-.09 0-.1 0-.11-.07-.06-.2-.1-.4-.14-.59-.12-.53-.22-.99-.63-1.05-2.63-.4-3.05-.94-3.12-1.1a.18.18 0 0 1-.01-.06c3.91-.64 5.65-4.52 5.76-4.78.27-.54.32-1.02.15-1.43-.31-.72-1.23-1.01-1.84-1.2a5.7 5.7 0 0 1-.36-.12c-.79-.31-1.03-.62-1-.81.05-.22.43-.44.76-.44.08 0 .14 0 .19.03.54.25 1.03.38 1.47.38.68 0 .98-.31 1.01-.35l.08-.08v-.11l-.06-.8c-.1-1.75-.25-3.91.3-5.11a6.59 6.59 0 0 1 6.1-3.9 313.44 313.44 0 0 0 .53-.01z" fill="#E0E0E0"/>
  </g>
</svg>
