<?xml version="1.0" encoding="utf-8"?>
<!-- Generator: Adobe Illustrator 24.0.3, SVG Export Plug-In . SVG Version: 6.00 Build 0)  -->
<svg version="1.1" id="Layer_1" xmlns="http://www.w3.org/2000/svg" xmlns:xlink="http://www.w3.org/1999/xlink" x="0px" y="0px"
	 viewBox="0 0 505.7 125" style="enable-background:new 0 0 505.7 125;" xml:space="preserve">
<style type="text/css">
	.st0{fill-rule:evenodd;clip-rule:evenodd;fill:#E30B17;}
	.st1{fill:#010202;}
</style>
<g>
	<g>
		<g>
			<polygon class="st0" points="103.6,104 21.8,104 21.8,23.2 103.6,23.2 103.6,50.7 92.8,50.7 92.8,33.8 32.5,33.8 32.5,93.4 
				92.8,93.4 92.8,68.5 90.7,68.5 76.8,68.5 76.8,58.7 90.7,58.7 103.6,58.7 103.6,68.5 			"/>
		</g>
		<g>
			<path class="st0" d="M62.7,87.7c-12.4,0-21-8.5-21-20.6V41.5h11.2v24.9c0,6.4,4.1,11,9.8,11c5.7,0,9.8-4.6,9.8-11V41.5h11.3V67
				C83.7,79.2,75,87.7,62.7,87.7z"/>
		</g>
	</g>
	<g>
		<path class="st1" d="M142.3,45.2H129v41.6h-3.5V45.2h-13.3V42h30.1V45.2z"/>
		<path class="st1" d="M171.8,86.7h-3.4V68.9c0-4.9-0.8-9.9-7.3-9.9c-6.5,0-9.6,5.6-9.6,12.8v14.9h-3.4V42h3.4v20.2
			c1.5-3.6,5.4-6.1,9.7-6.1c8.6,0,10.6,5.5,10.6,12.6V86.7z"/>
		<path class="st1" d="M207.3,72.5h-24.4c0.3,7.1,4.3,11.9,11.2,11.9c6.8,0,10.6-3.9,10.6-3.9l1.6,2.4c0,0-3.8,4.5-12.5,4.5
			s-14.4-6.5-14.4-15.7c0-9.3,6.6-15.6,14.6-15.6c7.9,0,13.6,6,13.6,14.1C207.5,71.2,207.3,72.5,207.3,72.5z M204.1,69.5
			c0-3.9-2.9-10.5-10.4-10.5c-7.5,0-10.5,6.3-10.7,10.5H204.1z"/>
		<path class="st1" d="M251,68c0,6.3-1.1,10.6-4.3,14.1c-3.1,3.4-8,5.3-14.5,5.3c-6.5,0-11.3-1.9-14.5-5.3
			c-3.1-3.4-4.2-7.8-4.2-14.1V42h10.6V68c0,3.2,0.3,5.6,1.8,7.5c1.4,1.7,3.5,2.8,6.4,2.8s5-1.1,6.4-2.8c1.5-1.8,1.8-4.3,1.8-7.5V42
			H251V68z"/>
		<path class="st1" d="M289.6,86.7h-10.4V70.1c0-4.2-0.6-7.4-4.9-7.4c-4.5,0-5.7,3.6-5.7,8.2v15.8h-10.4v-32h10.4l-0.1,4.6h0.1
			c1.8-2.9,4.7-5.2,9.3-5.2c9.3,0,11.7,6,11.7,13.7V86.7z"/>
		<path class="st1" d="M301.6,51.1c-3.5,0-5.9-2.1-5.9-5.4c0-3.2,2.4-5.4,5.9-5.4s5.9,2.2,5.9,5.4C307.5,48.9,305.1,51.1,301.6,51.1
			z M306.8,86.7h-10.4v-32h10.4V86.7z"/>
		<path class="st1" d="M355.3,79.8c-2.3,2-7.6,7.7-19.9,7.7c-12.4,0-23.3-8.2-23.3-23.1s10.9-23,23.4-23c11.9,0,17,6.2,18.4,7.8
			l-6.9,6c-1.9-2.1-5.4-5.1-11.5-5.1c-7.2,0-12.8,5.3-12.8,14.3s5.7,14.3,13,14.3c7.3,0,9.3-2.9,9.3-2.9v-6.6h-9.4v-8h19.6V79.8z"/>
		<path class="st1" d="M392.7,86.7h-10l-0.1-3.6c-1.4,1.9-4.7,4.3-9.3,4.3c-4.6,0-7.5-1.6-9.1-3.8c-1.6-2.2-2.3-5-2.3-9.6V54.8h10.4
			v17.9c0,3.7,1,6.2,4.7,6.2c3.7,0,5.4-2.9,5.4-7.1v-17h10.4V86.7z"/>
		<path class="st1" d="M404.8,51.1c-3.5,0-5.9-2.1-5.9-5.4c0-3.2,2.4-5.4,5.9-5.4s5.9,2.2,5.9,5.4C410.7,48.9,408.3,51.1,404.8,51.1
			z M410,86.7h-10.4v-32H410V86.7z"/>
		<path class="st1" d="M450.7,86.7h-9.9l0.1-4.2l-0.2,0.1c-2.4,3.2-6.2,4.9-10.5,4.9c-9.3,0-15.1-7.3-15.1-16.7
			c0-9.4,5.8-16.6,15.1-16.6c5.8,0,9.1,2.9,10.1,4.5V42h10.4V86.7z M433.2,62.3c-4.5,0-7.5,3.4-7.5,8.3c0,4.9,3,8.3,7.5,8.3
			s7.5-3.4,7.5-8.3C440.7,65.7,437.7,62.3,433.2,62.3z"/>
		<path class="st1" d="M489.1,73.2h-22.8c0.5,4.6,4,6.7,8.2,6.7c4.1,0,7.8-1.8,9.6-3l4.1,5.4c-1,0.8-5.3,5.2-15.2,5.2
			c-9.9,0-17.1-6.1-17.1-16.7c0-10.6,7.8-16.6,17.2-16.6c9.5,0,16,6.3,16,15.6C489.3,71.3,489.1,73.2,489.1,73.2z M479.6,67.3
			c-0.1-2.9-2.2-6.4-6.5-6.4c-4.3,0-6.5,3.4-6.6,6.4H479.6z"/>
	</g>
</g>
<g>
	<g>
		<g>
			<polygon class="st0" points="103.6,-44.5 21.8,-44.5 21.8,-125.2 103.6,-125.2 103.6,-97.8 92.8,-97.8 92.8,-114.7 32.5,-114.7 
				32.5,-55.1 92.8,-55.1 92.8,-80 90.7,-80 76.8,-80 76.8,-89.8 90.7,-89.8 103.6,-89.8 103.6,-80 			"/>
		</g>
		<g>
			<path class="st0" d="M62.7-60.8c-12.4,0-21-8.5-21-20.6v-25.5h11.2V-82c0,6.4,4.1,11,9.8,11c5.7,0,9.8-4.6,9.8-11v-24.9h11.3
				v25.5C83.7-69.3,75-60.8,62.7-60.8z"/>
		</g>
	</g>
	<g>
		<path class="st1" d="M142.3-103.3H129v41.6h-3.5v-41.6h-13.3v-3.2h30.1V-103.3z"/>
		<path class="st1" d="M171.8-61.7h-3.4v-17.8c0-4.9-0.8-9.9-7.3-9.9c-6.5,0-9.6,5.6-9.6,12.8v14.9h-3.4v-44.7h3.4v20.2
			c1.5-3.6,5.4-6.1,9.7-6.1c8.6,0,10.6,5.5,10.6,12.6V-61.7z"/>
		<path class="st1" d="M207.3-76h-24.4c0.3,7.1,4.3,11.9,11.2,11.9c6.8,0,10.6-3.9,10.6-3.9l1.6,2.4c0,0-3.8,4.5-12.5,4.5
			s-14.4-6.5-14.4-15.7c0-9.3,6.6-15.6,14.6-15.6c7.9,0,13.6,6,13.6,14.1C207.5-77.3,207.3-76,207.3-76z M204.1-78.9
			c0-3.9-2.9-10.5-10.4-10.5c-7.5,0-10.5,6.3-10.7,10.5H204.1z"/>
		<path class="st1" d="M251-80.4c0,6.3-1.1,10.6-4.3,14.1c-3.1,3.4-8,5.3-14.5,5.3c-6.5,0-11.3-1.9-14.5-5.3
			c-3.1-3.4-4.2-7.8-4.2-14.1v-26.1h10.6v26.1c0,3.2,0.3,5.6,1.8,7.5c1.4,1.7,3.5,2.8,6.4,2.8s5-1.1,6.4-2.8
			c1.5-1.8,1.8-4.3,1.8-7.5v-26.1H251V-80.4z"/>
		<path class="st1" d="M289.6-61.7h-10.4v-16.7c0-4.2-0.6-7.4-4.9-7.4c-4.5,0-5.7,3.6-5.7,8.2v15.8h-10.4v-32h10.4l-0.1,4.6h0.1
			c1.8-2.9,4.7-5.2,9.3-5.2c9.3,0,11.7,6,11.7,13.7V-61.7z"/>
		<path class="st1" d="M301.6-97.4c-3.5,0-5.9-2.1-5.9-5.4c0-3.2,2.4-5.4,5.9-5.4s5.9,2.2,5.9,5.4C307.5-99.5,305.1-97.4,301.6-97.4
			z M306.8-61.7h-10.4v-32h10.4V-61.7z"/>
		<path class="st1" d="M355.3-68.7c-2.3,2-7.6,7.7-19.9,7.7c-12.4,0-23.3-8.2-23.3-23.1s10.9-23,23.4-23c11.9,0,17,6.2,18.4,7.8
			l-6.9,6c-1.9-2.1-5.4-5.1-11.5-5.1c-7.2,0-12.8,5.3-12.8,14.3s5.7,14.3,13,14.3c7.3,0,9.3-2.9,9.3-2.9v-6.6h-9.4v-8h19.6V-68.7z"
			/>
		<path class="st1" d="M392.7-61.7h-10l-0.1-3.6c-1.4,1.9-4.7,4.3-9.3,4.3c-4.6,0-7.5-1.6-9.1-3.8c-1.6-2.2-2.3-5-2.3-9.6v-19.3
			h10.4v17.9c0,3.7,1,6.2,4.7,6.2c3.7,0,5.4-2.9,5.4-7.1v-17h10.4V-61.7z"/>
		<path class="st1" d="M404.8-97.4c-3.5,0-5.9-2.1-5.9-5.4c0-3.2,2.4-5.4,5.9-5.4s5.9,2.2,5.9,5.4C410.7-99.5,408.3-97.4,404.8-97.4
			z M410-61.7h-10.4v-32H410V-61.7z"/>
		<path class="st1" d="M450.7-61.7h-9.9L441-66l-0.2,0.1c-2.4,3.2-6.2,4.9-10.5,4.9c-9.3,0-15.1-7.3-15.1-16.7
			c0-9.4,5.8-16.6,15.1-16.6c5.8,0,9.1,2.9,10.1,4.5v-16.7h10.4V-61.7z M433.2-86.1c-4.5,0-7.5,3.4-7.5,8.3c0,4.9,3,8.3,7.5,8.3
			s7.5-3.4,7.5-8.3C440.7-82.8,437.7-86.1,433.2-86.1z"/>
		<path class="st1" d="M489.1-75.2h-22.8c0.5,4.6,4,6.7,8.2,6.7c4.1,0,7.8-1.8,9.6-3l4.1,5.4c-1,0.8-5.3,5.2-15.2,5.2
			c-9.9,0-17.1-6.1-17.1-16.7c0-10.6,7.8-16.6,17.2-16.6c9.5,0,16,6.3,16,15.6C489.3-77.1,489.1-75.2,489.1-75.2z M479.6-81.1
			c-0.1-2.9-2.2-6.4-6.5-6.4c-4.3,0-6.5,3.4-6.6,6.4H479.6z"/>
	</g>
</g>
</svg>
