<svg width="47" height="47" xmlns="http://www.w3.org/2000/svg">
  <g fill="none" fill-rule="evenodd">
    <path d="M46.45 23.72a22.5 22.5 0 1 1-45 0 22.5 22.5 0 0 1 45 0z" stroke="#FFF"/>
    <path d="M38.23 16.9c-.95.42-1.96.7-3.03.83a5.31 5.31 0 0 0 2.32-2.92 10.56 10.56 0 0 1-3.35 1.28 5.28 5.28 0 0 0-3.86-1.67 5.28 5.28 0 0 0-5.14 6.49 14.98 14.98 0 0 1-10.89-5.52 5.29 5.29 0 0 0 1.63 7.05 5.22 5.22 0 0 1-2.39-.67v.07a5.29 5.29 0 0 0 4.24 5.19 5.45 5.45 0 0 1-2.39.08 5.28 5.28 0 0 0 4.94 3.67 10.59 10.59 0 0 1-6.56 2.26 10.3 10.3 0 0 1-1.26-.07 14.95 14.95 0 0 0 8.1 2.37c9.7 0 15.02-8.04 15.02-15.03l-.01-.68a10.64 10.64 0 0 0 2.63-2.74" fill="#FFF"/>
  </g>
</svg>
