<?xml version="1.0" standalone="no"?>
<!DOCTYPE svg PUBLIC "-//W3C//DTD SVG 1.1//EN" "http://www.w3.org/Graphics/SVG/1.1/DTD/svg11.dtd" >
<svg>
<metadata>
Created by FontForge 20120731 at Fri Nov  4 14:06:54 2016
 By ,,,
Copyright (c) 2013 by Leigh Furby. All rights reserved.
</metadata>
<defs>
<font id="WhichIcons" horiz-adv-x="1382" >
  <font-face 
    font-family="WhichIcons"
    font-weight="400"
    font-stretch="normal"
    units-per-em="2048"
    panose-1="2 11 5 3 4 0 0 2 0 4"
    ascent="1638"
    descent="-410"
    bbox="0 -385 6473 1870"
    underline-thickness="102"
    underline-position="-153"
    unicode-range="U+000D-FFFD"
  />
<missing-glyph horiz-adv-x="993" 
 />
    <glyph glyph-name=".notdef" horiz-adv-x="993" 
 />
    <glyph glyph-name=".null" horiz-adv-x="0" 
 />
    <glyph glyph-name="nonmarkingreturn" horiz-adv-x="2048" 
 />
    <glyph glyph-name="uni000D" unicode="&#xd;" horiz-adv-x="614" 
 />
    <glyph glyph-name="space" unicode=" " horiz-adv-x="1024" 
 />
    <glyph glyph-name="A" unicode="A" horiz-adv-x="1707" 
 />
    <glyph glyph-name="uni00A0" unicode="&#xa0;" horiz-adv-x="1273" 
d="M1269 0h-1269v1269h1269v-1269v0zM182 181h906v906h-906v-906v0z" />
    <glyph glyph-name="sterling" unicode="&#xa3;" horiz-adv-x="1005" 
d="M2 1041h1001l-545 -564z" />
    <glyph glyph-name="brokenbar" unicode="&#xa6;" horiz-adv-x="174" 
d="M2 633h170l-2 -733h-168v733zM2 1518h168l2 -721h-170v721z" />
    <glyph glyph-name="dieresis" unicode="&#xa8;" horiz-adv-x="1707" 
 />
    <glyph glyph-name="guillemotleft" unicode="&#xab;" horiz-adv-x="766" 
d="M182 692l582 -581v-152l-14 -12l-748 747l748 750l14 -14v-158z" />
    <glyph glyph-name="uni00B6" unicode="&#xb6;" 
d="M1346 840h-229v-228h-56v228h-227v56h227v229h56v-229h229v-56zM585 471q35 -24 58.5 -48.5t37.5 -52t20 -59t6 -69.5q0 -48 -22.5 -93.5t-66.5 -81t-108 -57t-148 -21.5q-73 0 -138.5 14.5t-114.5 41t-78 65t-29 86.5t26.5 93.5t73 81t109.5 56.5t136 21q17 0 31.5 0.5
t29.5 0.5q-20 20 -33.5 44t-13.5 53q0 18 5 35t12 31q-8 -1 -16.5 -1h-16.5q-60 0 -109.5 20t-84.5 54.5t-54 81.5t-19 100q0 52 25.5 98.5t68 82t98 56.5t114.5 21h351l-78 -58h-111q27 -11 48.5 -31.5t35.5 -47.5t21.5 -59t7.5 -65q0 -57 -27.5 -103t-72.5 -80
q-21 -17 -34.5 -29.5t-21 -24t-10 -22.5t-2.5 -26q0 -12 10 -27t24.5 -30t31 -28.5t28.5 -22.5zM396 647q34 -1 62 15t46.5 44.5t26 67.5t1.5 84q-6 44 -24 82.5t-44 68t-58 47t-66 18.5t-61.5 -14t-46 -43t-26.5 -66.5t-2 -83.5q6 -44 23.5 -83.5t44 -69.5t58.5 -48t66 -19
zM362 45q71 0 119.5 14t78.5 39t43.5 58t13.5 72q0 9 -1 18.5t-3 17.5q-6 22 -18.5 39t-30.5 32.5t-41 31t-51 35.5q-20 6 -42 9.5t-45 3.5q-51 1 -97.5 -13.5t-81.5 -39t-56 -58.5t-21 -72t17.5 -72t48 -59.5t73.5 -40.5t94 -15z" />
    <glyph glyph-name="periodcentered" unicode="&#xb7;" horiz-adv-x="1707" 
 />
    <glyph glyph-name="uni00BB" unicode="&#xbb;" horiz-adv-x="766" 
d="M584 672l-582 579v158l14 14l748 -749l-748 -748l-14 13v151z" />
    <glyph glyph-name="Egrave" unicode="&#xc8;" horiz-adv-x="720" 
d="M634 1384q26 0 44 -19t18 -45v-324h-679v324q0 26 18 45t44 19h555zM622 1206h-36v-136h36v136zM17 955h679v-869q0 -26 -18 -45t-44 -19h-555q-26 0 -44 19t-18 45v869zM94 846h317v37h-317v-37z" />
    <glyph glyph-name="multiply" unicode="&#xd7;" horiz-adv-x="841" 
d="M421 578l-307 -308l-112 117l305 307l-305 307l112 117l307 -307l306 307l112 -117l-305 -307l305 -307l-112 -117z" />
    <glyph glyph-name="uni0394" unicode="&#x394;" horiz-adv-x="1605" 
d="M1001 -11q8 -34 22.5 -65.5t37.5 -52.5q16 -14 36 -22t47 -8v-34h-682v34q27 0 46.5 8t35.5 22t27.5 33t19.5 41q15 44 20 87h383q2 -11 3.5 -21.5t3.5 -21.5zM1557 1196q19 0 32.5 -13.5t13.5 -32.5v-992q0 -19 -13.5 -32t-32.5 -13h-1509q-19 0 -32.5 13t-13.5 32v992
q0 19 13.5 32.5t32.5 13.5h1509zM1492 1085h-1379v-862h1379v862z" />
    <glyph glyph-name="bullet" unicode="&#x2022;" horiz-adv-x="639" 
d="M2 1161h635v-635h-635v635z" />
    <glyph glyph-name="uni2023" unicode="&#x2023;" 
d="M0 687q0 143 54 268t147 220q94 94 218 147q126 54 268 54q143 0 268 -54t220 -147q93 -95 147 -220t54 -268q0 -142 -54 -268q-53 -124 -147 -218q-95 -93 -220 -147t-268 -54q-95 0 -183 24q-88 26 -164 69q-75 44 -139 108t-108 139q-43 76 -69 164q-24 88 -24 183z
M97 685q0 -122 47 -231q46 -108 127 -189q41 -40 87.5 -72t101.5 -55q109 -47 231 -47t231 47q55 23 102 55t88 72q81 81 127 189q47 109 47 231t-47 231q-46 108 -127 189q-81 80 -190 127t-231 47t-231 -47q-108 -46 -189 -127t-127 -189q-47 -109 -47 -231zM612 366
l-76 77l238 246l-238 243l75 78l314 -320z" />
    <glyph glyph-name="ellipsis" unicode="&#x2026;" horiz-adv-x="1134" 
d="M129 -10q-26 0 -49.5 9.5t-40.5 27t-27 40.5t-10 50t10 50.5t27 41t40.5 27.5t49.5 10t49.5 -10t41 -27.5t28 -41t10.5 -50.5t-10.5 -50t-28 -40.5t-41 -27t-49.5 -9.5zM567 -10q-27 0 -50 9.5t-40.5 27t-27 40.5t-9.5 50t9.5 50.5t27 41t40.5 27.5t50 10q26 0 49.5 -10
t41 -27.5t28 -41t10.5 -50.5t-10.5 -50t-28 -40.5t-41 -27t-49.5 -9.5zM1005 -10q-27 0 -50.5 9.5t-41 27t-27.5 40.5t-10 50t10 50.5t27.5 41t41 27.5t50.5 10q26 0 49 -10t40.5 -27.5t27.5 -41t10 -50.5t-10 -50t-27.5 -40.5t-40.5 -27t-49 -9.5z" />
    <glyph glyph-name="guilsinglleft" unicode="&#x2039;" horiz-adv-x="438" 
d="M2 485v93l270 399h164v-55l-252 -385v-5l252 -391v-53h-164z" />
    <glyph glyph-name="guilsinglright" unicode="&#x203a;" horiz-adv-x="438" 
d="M436 578v-91l-268 -399h-166v53l252 391v7l-252 383v55h166z" />
    <glyph glyph-name="uni2190" unicode="&#x2190;" horiz-adv-x="672" 
d="M670 965l-379 -385l379 -385v-262l-10 -10l-658 657l658 658l10 -10v-263z" />
    <glyph glyph-name="uni2191" unicode="&#x2191;" horiz-adv-x="1005" 
d="M502 1041l501 -864h-1001z" />
    <glyph glyph-name="uni2192" unicode="&#x2192;" horiz-adv-x="672" 
d="M2 1228l10 10l658 -658l-658 -657l-10 10v262l379 385l-379 385v263z" />
    <glyph glyph-name="uni2193" unicode="&#x2193;" horiz-adv-x="1005" 
d="M2 1041h1001l-501 -864z" />
    <glyph glyph-name="uni219a" unicode="&#x219a;" horiz-adv-x="1248" 
d="M1046 1230h184v-185v-298l-184 -170v348l-741 -739h349l-170 -185h-298h-185v184v297l185 171v-348l741 741h-349l169 184h299v0z" />
    <glyph glyph-name="uni219b" unicode="&#x219b;" horiz-adv-x="1437" 
d="M1263 123h-1084q-41 0 -61 20.5t-6 59.5l182 559q6 19 19.5 37t31.5 31.5t38.5 21.5t40.5 8h97q-3 0 -5 16t-2 30q0 46 17.5 85.5t47.5 68.5t70.5 45.5t86.5 16.5t86.5 -16t71 -44.5t48 -67.5t17.5 -85q0 -7 -0.5 -15.5t-2 -16t-3 -12.5t-3.5 -5h68q20 0 40.5 -9
t38.5 -24t31.5 -34t19.5 -38l183 -547q13 -38 -7 -61.5t-61 -23.5zM621 906q0 -16 3.5 -31t11.5 -15h200q8 0 12 15t4 31q0 24 -9 45.5t-25 37t-37 24.5t-45 9t-45 -9t-36.5 -24.5t-24.5 -37t-9 -45.5z" />
    <glyph glyph-name="uni21AD" unicode="&#x21ad;" horiz-adv-x="1235" 
d="M764 582q0 -31 -11.5 -58t-31.5 -47.5t-47 -32t-58 -11.5t-58 11.5t-47 32t-31.5 47.5t-11.5 58t11.5 58t31.5 47t47 31.5t58 11.5t58 -11.5t47 -31.5t31.5 -47t11.5 -58zM400 313q-8 -10 -20 -15t-24 -5q-23 0 -40 17q-57 51 -87 120q-33 73 -33 152t31 147
q14 34 35.5 64t47.5 56q17 17 42 16.5t43 -18.5q17 -17 16 -42t-18 -42q-38 -36 -58 -82.5t-20 -98.5q0 -53 21.5 -101t60.5 -84q17 -17 18.5 -41.5t-15.5 -42.5zM355 118q-8 -14 -22 -21.5t-29 -7.5q-16 0 -31 9q-61 38 -111.5 88.5t-85.5 113.5q-37 64 -56 135.5
t-19 146.5q0 129 54.5 243.5t154.5 195.5q20 16 44 14t40 -22t13.5 -44t-22.5 -40q-79 -64 -122 -154.5t-43 -192.5q0 -59 15 -115t44 -107q58 -100 156 -160q21 -13 27 -37t-7 -45zM920 293q-17 -17 -41 -17q-25 0 -43 18q-17 18 -16 42.5t18 41.5q37 36 57 83t20 99
q0 53 -21.5 101.5t-59.5 83.5q-18 17 -19 41.5t16 42.5t41 19t43 -15q28 -26 50 -56.5t37 -65.5q17 -35 24.5 -73t7.5 -78q0 -78 -30 -148q-30 -68 -84 -119zM1020 120q-18 -13 -37 -13q-27 0 -46 22q-16 20 -13.5 44t22.5 40q78 64 121.5 154t43.5 193q0 59 -15.5 115.5
t-44.5 107.5q-28 49 -67.5 89.5t-87.5 69.5q-22 14 -27.5 37.5t6.5 44.5q13 21 37 27t45 -7q62 -37 112.5 -88.5t85.5 -113.5q37 -65 55.5 -136t18.5 -146q0 -130 -54 -244t-155 -196z" />
    <glyph glyph-name="uni21AE" unicode="&#x21ae;" horiz-adv-x="1284" 
d="M634 1216q85 0 163.5 -22t146.5 -62t124 -95.5t96 -124t62 -147t22 -163.5t-22 -163.5t-62 -146.5t-96 -124t-124 -96t-146.5 -62t-163.5 -22q-128 0 -239.5 48.5t-195 131.5t-131.5 195t-48 239q0 85 22 163.5t62 147t95.5 124t124 95.5t147 62t163.5 22zM634 71
q110 0 207 42t169 114t114 168.5t42 206.5t-42 207t-114 169t-169 114t-207 42t-207 -42t-169 -114t-114 -169t-42 -207t42 -206.5t114 -168.5t169 -114t207 -42zM1018 711q5 -23 9 -40.5t7 -33t4.5 -30t1.5 -31.5q0 -84 -32 -158t-87 -129t-129 -87t-158 -32t-158 32
t-129 87.5t-87 129.5t-32 158q0 18 1.5 32t4 29t6.5 32.5t9 40.5h769z" />
    <glyph glyph-name="uni21B6" unicode="&#x21b6;" horiz-adv-x="1087" 
d="M526 999q75 -12 156 -35.5t154.5 -60t132 -86t87.5 -113t21 -141t-67.5 -170.5t-177 -201.5t-308.5 -232.5q71 74 133.5 148.5t105 144t58 132t-8 112.5t-92.5 84.5t-196 48.5v-242l-522 444l524 431v-263z" />
    <glyph glyph-name="uni21BA" unicode="&#x21ba;" horiz-adv-x="1339" 
d="M1337 655v-2q0 -93 -25 -180t-69.5 -162t-107 -137t-137.5 -106.5t-161.5 -68.5t-178.5 -24h-5v207h5q97 0 182.5 37t150 101t102 150.5t38.5 184.5v2q0 98 -37.5 184.5t-101.5 151.5t-149.5 103t-182.5 39h-2h-3q-102 0 -192.5 -40.5t-153.5 -111.5l160 -166h-467v479
l158 -166q94 100 221.5 155.5t273.5 55.5h7q92 -1 178 -25.5t161 -69t137 -107t106 -138t68.5 -163t24.5 -181.5v-2z" />
    <glyph glyph-name="uni21DD" unicode="&#x21dd;" horiz-adv-x="1454" 
d="M686 175q-2 8 -3 15l-2 14h-262q-2 -14 -5.5 -29.5t-8.5 -29.5q-6 -15 -13.5 -28t-18.5 -23q-11 -9 -24.5 -14.5t-32.5 -5.5v-24h467v24q-19 0 -32 5.5t-24 14.5q-17 14 -26.5 36t-14.5 45zM1066 1001h-1033q-13 0 -22 -9t-9 -22v-679q0 -13 9 -22t22 -9h1033q13 0 22 9
t9 22v679q0 13 -9 22t-22 9zM1022 335h-944v590h944v-590zM1236 1352q20 0 33.5 -14t13.5 -34q0 -26 9 -47.5t26 -38.5t39 -26.5t48 -9.5q20 0 33.5 -13.5t13.5 -33.5t-13.5 -33.5t-33.5 -13.5q-45 0 -84.5 17t-68.5 46t-46.5 68.5t-17.5 84.5q0 10 4 18.5t10 15.5
q7 6 15 10t19 4zM1062 1311q20 0 33.5 -13.5t13.5 -33.5q0 -54 20 -100t55 -81t81 -55t100 -20q20 0 33.5 -13.5t13.5 -33.5t-13.5 -33.5t-33.5 -13.5q-73 0 -136.5 27t-111.5 75t-75 111.5t-27 136.5q0 20 13 33q14 14 34 14z" />
    <glyph glyph-name="uni21DF" unicode="&#x21df;" horiz-adv-x="1169" 
d="M162 305q33 0 62 -12.5t50.5 -34.5t34 -51t12.5 -62t-12.5 -62t-34 -50.5t-50.5 -34t-62 -12.5t-62 12.5t-51 34t-34.5 50.5t-12.5 62t12.5 62t34.5 51t51 34.5t62 12.5zM2 758q107 0 205.5 -27.5t184 -77.5t156 -120.5t121 -156t78 -184.5t27.5 -206h-225
q0 114 -43 213.5t-117.5 173.5t-174 116.5t-212.5 42.5v226zM934 -14q0 129 -33.5 248t-94 223t-145.5 188.5t-188.5 145.5t-223 94t-247.5 33v233q161 0 309.5 -41.5t278 -117.5t236 -182.5t182.5 -236t117.5 -278t41.5 -309.5h-233z" />
    <glyph glyph-name="minus" unicode="&#x2212;" horiz-adv-x="907" 
d="M2 623v170h903v-170h-903z" />
    <glyph glyph-name="uni2302" unicode="&#x2302;" horiz-adv-x="1374" 
d="M686 1294l686 -682l-129 -129l-557 553l-555 -553l-129 129zM199 438l487 494l487 -494v-450h-352v413h-270v-413h-352v450z" />
    <glyph glyph-name="uni25A3" unicode="&#x25a3;" horiz-adv-x="1440" 
d="M1268 1118q35 0 66 -14t54 -37.5t36.5 -55t13.5 -65.5v-796q0 -36 -13.5 -67t-36.5 -54t-54 -36t-66 -13h-1096q-35 0 -66 13t-54 36t-36.5 54t-13.5 67v796q0 34 13.5 65.5t36.5 55t54 37.5t66 14h1096zM1095 651v271l-270 -2l98 -95l-419 -407v2l-90 -96l-95 98l4 -277
h275l-98 91l501 514z" />
    <glyph glyph-name="uni25B2" unicode="&#x25b2;" horiz-adv-x="1319" 
d="M1044 2l-385 379l-385 -379h-262l-10 10l657 658l658 -658l-10 -10h-263z" />
    <glyph glyph-name="uni25BA" unicode="&#x25ba;" horiz-adv-x="868" 
d="M866 610l-864 -501v1001z" />
    <glyph glyph-name="uni25BC" unicode="&#x25bc;" horiz-adv-x="1319" 
d="M1044 633h263l10 -10l-658 -658l-657 658l10 10h262l385 -379z" />
    <glyph glyph-name="uni25C4" unicode="&#x25c4;" horiz-adv-x="868" 
d="M866 1110v-1001l-864 501z" />
    <glyph glyph-name="uni25C6" unicode="&#x25c6;" horiz-adv-x="6475" 
d="M1752 1472h419l-429 -1821h-374l-283 1041l-277 -1041h-382l-424 1821h440l220 -1081l251 1081h219q44 0 76 -8.5t55 -29.5t39 -56t29 -87l215 -900zM3065 1058q-55 0 -112.5 -9t-112.5 -26t-103.5 -42t-84.5 -56v390q0 37 -7 66t-23 49.5t-43 31t-66 10.5h-277v-1821
h416v1033q63 16 121 25t120 9q33 0 59 -5.5t44.5 -19.5t28 -40t9.5 -66v-936h416v1049q0 76 -17.5 141.5t-61 113.5t-118 75.5t-188.5 27.5zM3567 -349h416v1371h-416v-1371zM4075 336q0 -154 42 -286t127 -228.5t211.5 -151.5t296.5 -55q64 0 124 6.5t113 20.5t97.5 36
t76.5 52v261q-61 -12 -107.5 -18.5t-85.5 -10t-74 -4.5t-71 -1q-80 0 -140.5 26.5t-100.5 75.5t-60 119.5t-20 157.5t20 157.5t60 120t100.5 76t140.5 26.5q36 0 71 -1t74 -4.5t85.5 -10t107.5 -18.5v261q-32 30 -76.5 52t-97.5 36t-113 20.5t-124 6.5q-170 0 -296.5 -55
t-211.5 -152t-127 -229t-42 -286zM6089 1058q-55 0 -113 -9t-113 -26t-103.5 -42t-84.5 -56v390q0 75 -30 116t-108 41h-277v-1821h415v1033q63 16 121.5 25t119.5 9q33 0 59.5 -5.5t45 -19.5t28 -40t9.5 -66v-936h415v1049q0 76 -17.5 141.5t-61 113.5t-117.5 75.5
t-188 27.5zM3640 1472q-38 0 -64 -26.5t-26 -63.5v-153q0 -38 26 -64t64 -26h271q37 0 63.5 26t26.5 64v153q0 37 -26.5 63.5t-63.5 26.5h-271z" />
    <glyph glyph-name="uni25C8" unicode="&#x25c8;" horiz-adv-x="1415" 
d="M313 1231h1100v-862h-317h-783v479v383zM1302 483v662h-872v-662h872zM246 303h65h793v-315h-1102v864h244v-475v-74z" />
    <glyph glyph-name="uni25E6" unicode="&#x25e6;" horiz-adv-x="1273" 
d="M1269 0h-1269v1269h1269v-1269zM182 181h906v906h-906v-906z" />
    <glyph glyph-name="uni25FC" unicode="&#x25fc;" horiz-adv-x="500" 
d="M0 0v0v0v0z" />
    <glyph glyph-name="uni2600" unicode="&#x2600;" horiz-adv-x="1176" 
d="M345 1223q0 44 28 71q29 26 77 26q45 0 72 -28q29 -27 29 -71v-198q0 -49 -28 -77t-76 -28q-46 0 -75 29q-27 30 -27 78v198zM418 1018q0 -17 7 -25q8 -8 22 -8q13 0 23 8q8 10 8 25v208q0 12 -8 20q-10 8 -23 8t-21 -8q-8 -7 -8 -20v-208zM175 1134l-95 312h80l52 -207
h5l50 207h81l-93 -303v-215h-80v206zM661 923q-25 0 -38 17q-12 16 -12 51v319h71v-293q0 -14 5 -19q3 -6 14 -6q9 0 20 8q10 6 22 20v290h71v-382h-71v42q-20 -23 -41 -35t-41 -12zM1165 638q5 -55 7 -109.5t1 -109.5q1 -55 -1 -109.5t-7 -109.5q0 -35 -13 -65.5t-36 -53
t-54 -35.5t-66 -13q-100 -5 -201.5 -6.5t-206.5 -1.5t-206.5 1.5t-202.5 6.5q-35 0 -65.5 13t-53.5 35.5t-36.5 53t-13.5 65.5q-4 55 -6 109.5t-2 109.5t2 109.5t6 109.5q0 34 13.5 64.5t36.5 53.5t53.5 36t65.5 13q101 5 202.5 6.5t206.5 1.5t206.5 -1.5t201.5 -6.5
q35 0 66 -13t54 -36t36 -53.5t13 -64.5zM256 610h83v75h-246v-75h83v-443h80v443zM541 550h-72v-290q-5 -7 -10.5 -12t-10.5 -9q-14 -8 -20 -8q-11 0 -15 6q-4 5 -4 20v293h-71v-320q0 -35 12 -51q12 -17 37 -17q20 0 41 12q21 11 41 36v-43h72v383zM814 459q0 47 -18 71
t-51 24q-17 0 -33 -9q-15 -8 -31 -26v166h-71v-518h71v30q14 -17 31 -26q15 -8 37 -8q31 0 48 21q17 23 17 63v212zM1076 447q0 56 -26 83q-25 29 -75 29q-47 0 -78 -31q-29 -32 -29 -81v-172q0 -55 27 -86q27 -32 75 -32q53 0 80 30q26 29 26 88v29h-73v-27q0 -33 -7 -43
q-6 -10 -24 -10t-24 12q-7 10 -7 41v73h135v97zM972 492q17 0 24 -10t7 -35v-38h-62v38q0 25 7 35t24 10zM711 494q14 0 22 -10q8 -11 8 -30v-197q0 -19 -6 -26q-5 -8 -20 -8q-9 0 -17 4q-4 2 -8 5t-9 8v238q7 7 15 12q10 4 15 4z" />
    <glyph glyph-name="uni2601" unicode="&#x2601;" horiz-adv-x="838" 
d="M613 837q46 0 86.5 -17.5t71 -47.5t48 -71t17.5 -87t-17.5 -86.5t-48 -71t-71 -48t-86.5 -17.5q-63 0 -114 31t-80 81q-29 -50 -80 -81t-114 -31q-46 0 -86.5 17.5t-71 48t-48 71t-17.5 86.5t17.5 87t48 71t71 47.5t86.5 17.5q63 0 114 -30.5t80 -81.5q29 51 80 81.5
t114 30.5zM728 499q23 22 35.5 51.5t12.5 63.5q0 35 -12.5 64t-35.5 52q-22 23 -51.5 35.5t-63.5 12.5q-35 0 -64 -12.5t-52 -35.5t-35.5 -52t-12.5 -64q0 -34 12.5 -63.5t35.5 -51.5q23 -23 52 -35.5t64 -12.5q34 0 63.5 12.5t51.5 35.5z" />
    <glyph glyph-name="uni2605" unicode="&#x2605;" horiz-adv-x="1413" 
d="M1409 836q2 -10 -0.5 -18t-11.5 -13l-396 -287l150 -477q3 -8 0.5 -16t-8.5 -13q-10 -4 -15 -4t-8 1t-6 3l-406 295l-405 -295q-6 -5 -14.5 -5t-14.5 5q-8 5 -10 13t0 16l150 477l-396 287q-16 10 -10 31q3 14 10.5 19t18.5 5h487l160 467q3 8 9.5 13.5t14.5 5.5
t14.5 -5.5t8.5 -13.5l160 -467h489q11 0 18.5 -5t10.5 -19z" />
    <glyph glyph-name="uni2606" unicode="&#x2606;" horiz-adv-x="1124" 
d="M577 676v172h545v-172h-545v0zM577 936v176h545v-176h-545v0zM577 264v174h545v-174h-545v0zM577 2v172h545v-172h-545v0zM436 674h-434v432h434v-432zM436 2h-434v434h434v-434z" />
    <glyph glyph-name="uni260E" unicode="&#x260e;" horiz-adv-x="1249" 
d="M1092 848q29 0 57 -13.5t49.5 -35.5t35 -50t13.5 -57v-311q0 -29 -13.5 -57t-35 -50t-49.5 -35.5t-57 -13.5v-233l-234 233h-389q-29 0 -57 13.5t-50 35.5t-35.5 50t-13.5 57v45l111 111h356q45 0 87.5 19.5t75 51.5t52 74.5t19.5 87.5v78h78zM780 1237q29 0 57 -13.5
t50 -35.5t35.5 -50t13.5 -57v-311q0 -29 -13.5 -57t-35.5 -50t-50 -35.5t-57 -13.5h-389l-233 -233v233q-29 0 -57 13.5t-50 35.5t-35.5 50t-13.5 57v311q0 29 13.5 57t35.5 50t50 35.5t57 13.5h622z" />
    <glyph glyph-name="uni2610" unicode="&#x2610;" 
d="M635 715q6 14 -0.5 20t-20.5 6q-15 0 -31 -15.5t-31.5 -34.5t-29.5 -34.5t-24 -15.5q-7 0 -11 4.5t-4 9.5q0 7 9 19.5t21 25.5t23.5 24.5l16.5 16.5q16 15 35.5 28t41.5 23.5t45 16.5t46 6q21 0 38.5 -6.5t28 -23t11.5 -44t-13 -69.5l-86 -223q-5 -13 -11.5 -30.5
t-6.5 -31.5q0 -8 3 -15t9 -7q12 0 29.5 15.5t35 33.5t31.5 33.5t19 15.5q3 0 7.5 -4t4.5 -10q0 -12 -22.5 -40.5t-58.5 -58.5t-80 -53t-87 -23q-29 0 -51 15.5t-22 46.5q0 22 7 48.5t16.5 51t18 45t11.5 29.5zM692 940q0 18 8.5 34t22 28t30.5 19t35 7q15 0 30 -6t26.5 -16
t18.5 -24t7 -30q0 -21 -8.5 -38.5t-22 -30t-30.5 -19t-35 -6.5q-82 0 -82 82zM2 639q0 143 54 268.5t147 219.5t218.5 148t268.5 54t268.5 -54t219.5 -148t148 -219.5t54 -268.5t-54 -268.5t-148 -218.5t-219.5 -147t-268.5 -54q-95 0 -183 24.5t-164.5 69t-139.5 107.5
t-107.5 139.5t-69 164.5t-24.5 183zM168 637q0 -109 41.5 -205t112.5 -167t167 -112.5t205 -41.5t205 41.5t167.5 112.5t113 167t41.5 205t-41.5 205t-113 167t-167.5 112.5t-205 41.5t-205 -41.5t-167 -112.5t-112.5 -167t-41.5 -205z" />
    <glyph glyph-name="uni2611" unicode="&#x2611;" horiz-adv-x="1593" 
d="M1591 1343q-96 -87 -185 -185t-169 -198.5t-149 -201t-125 -193t-98 -174.5t-66 -145l-574 583l146 119l331 -260q51 61 132.5 148t190 186t242 203.5t289.5 199.5zM1380 725v-463q0 -62 -23.5 -115.5t-63.5 -93.5t-93.5 -63t-114.5 -23h-790q-62 0 -115 23t-93 63
t-62.5 93.5t-22.5 115.5v789q0 60 22.5 114t62.5 94t93 63.5t115 23.5h756l-148 -148h-608q-31 0 -57.5 -12t-46 -32t-31 -46.5t-11.5 -56.5v-789q0 -31 11.5 -57.5t31 -46.5t46 -31.5t57.5 -11.5h790q31 0 58 11.5t47 31.5t31.5 46.5t11.5 57.5v316z" />
    <glyph glyph-name="uni2612" unicode="&#x2612;" horiz-adv-x="1431" 
d="M1429 160q0 -35 -13 -66t-36 -54.5t-53.5 -37.5t-65.5 -14h-1089q-35 0 -66 14t-54 37.5t-36.5 54.5t-13.5 66v788q0 35 13.5 66t36.5 54t54 36.5t66 13.5h1089q35 0 65.5 -13.5t53.5 -36.5t36 -54t13 -66v-788zM639 535l-266 20l92 -106l-273 -224l76 -90l264 217
l86 -98zM934 674l264 223l-78 94l-268 -221l-92 104l-21 -286l283 -19z" />
    <glyph glyph-name="uni261D" unicode="&#x261d;" horiz-adv-x="985" 
d="M983 551q0 -54 -13.5 -83.5t-58.5 -29.5q17 -5 28 -16t17 -26t8.5 -32.5t2.5 -35.5q0 -47 -14 -78t-58 -31h-51q29 -9 38 -38.5t9 -69.5q0 -23 -2.5 -43t-9.5 -35t-20 -24t-34 -9h-522q-61 0 -115.5 24.5t-96 66.5t-65.5 98.5t-24 121.5v316q0 89 45.5 160.5t120.5 111.5
q33 17 75.5 48.5t84.5 76.5t78 101.5t55 123.5v131q63 5 112 -13q21 -8 41.5 -21t36 -33.5t25.5 -50.5t10 -70q0 -63 -12 -109t-27.5 -78.5t-30 -52t-19.5 -31t4 -16.5t40 -6h197q24 0 39.5 -11t23.5 -28.5t11 -38.5t3 -41q0 -52 -10 -81t-45 -35h51q22 0 36.5 -11t22 -27.5
t10.5 -36.5t3 -38z" />
    <glyph glyph-name="uni261E" unicode="&#x261e;" horiz-adv-x="1219" 
d="M1066 70q40 0 67.5 -28t27.5 -68q0 -20 -7.5 -37t-20 -30t-30 -20.5t-37.5 -7.5t-37.5 7.5t-30 20.5t-20 30t-7.5 37q0 40 27.5 68t67.5 28zM316 70q40 0 68 -28t28 -68q0 -20 -7.5 -37t-20.5 -30t-30.5 -20.5t-37.5 -7.5t-37 7.5t-30 20.5t-20.5 30t-7.5 37t7.5 37.5
t20.5 30.5t30 20.5t37 7.5zM467 450l-54 -167h722q29 0 50 -21t21 -50t-21 -49.5t-50 -20.5h-915l101 313l-190 518h-59q-29 0 -49.5 20.5t-20.5 49.5t20.5 49.5t49.5 20.5h158l54 -148h933v-297l-217 -218h-533z" />
    <glyph glyph-name="uni261F" unicode="&#x261f;" horiz-adv-x="985" 
d="M983 776q0 -18 -3 -38t-10.5 -36.5t-22 -27t-36.5 -10.5h-51q35 -7 45 -36t10 -81q0 -20 -3 -41t-11 -38.5t-23.5 -28.5t-39.5 -11h-197q-31 -1 -40 -6t-4 -16.5t19.5 -31t30 -52t27.5 -78.5t12 -109q0 -41 -10 -70.5t-25.5 -50.5t-36 -34t-41.5 -20q-49 -18 -112 -13
v131q-19 67 -55 123.5t-78 101.5t-84.5 76.5t-75.5 48.5q-75 40 -120.5 111.5t-45.5 160.5v316q0 64 24 121t65.5 99t96 66.5t115.5 24.5h522q21 0 34 -9t20 -24t9.5 -35t2.5 -42q0 -41 -9 -70.5t-38 -38.5h51q22 0 36 -8.5t22 -23t11 -34.5t3 -43q0 -18 -2.5 -35.5
t-8.5 -32.5t-17 -26.5t-28 -15.5q45 0 58.5 -29.5t13.5 -83.5z" />
    <glyph glyph-name="uni2638" unicode="&#x2638;" horiz-adv-x="1184" 
d="M1182 995v-919h-283v919h283zM451 995v-919h282v919h-282zM2 995v-919h283v919h-283z" />
    <glyph glyph-name="uni2639" unicode="&#x2639;" horiz-adv-x="1847" 
d="M1845 777q0 -55 -27.5 -103.5t-73.5 -76.5q4 -19 4 -60q0 -112 -63.5 -214t-182.5 -181q-116 -76 -265 -117t-312 -41q-340 0 -580 158q-119 79 -182.5 181t-63.5 214q0 41 4 60q-46 28 -73.5 76.5t-27.5 103.5q0 86 62 148.5t149 62.5q77 0 137 -52q111 73 254.5 113.5
t299.5 41.5l118 389q5 12 16 19t23 4l333 -75q21 48 64.5 78t96.5 30q72 0 123 -51.5t51 -124.5q0 -71 -51 -122.5t-123 -51.5t-122.5 51t-50.5 123v4l-304 68l-106 -341q307 -12 525 -155q60 52 137 52q87 0 149 -62.5t62 -148.5zM1555 1469q-45 0 -77 -32t-32 -77
q0 -44 32 -76t77 -32q44 0 76 32t32 76q0 45 -32 77t-76 32zM68 777q0 -68 52 -110q42 123 174 230q-39 24 -81 24q-61 0 -103 -42t-42 -102zM922 48q206 0 381.5 65.5t277 178.5t101.5 245v35q-10 48 -15 64q-36 115 -157 211q-42 31 -56 39q-103 66 -241 102.5t-291 36.5
q-151 0 -288.5 -36.5t-240.5 -102.5q-14 -8 -56 -39q-121 -96 -157 -211q-5 -16 -15 -64v-35q0 -132 101.5 -245t276 -178.5t379.5 -65.5zM1727 667q52 42 52 110q0 60 -42 102t-103 42q-42 0 -81 -24q132 -107 174 -230zM1175 326q10 9 25 7.5t24 -12.5q10 -11 8.5 -25.5
t-12.5 -23.5q-113 -89 -298 -89q-182 0 -295 89q-11 9 -12.5 23.5t8.5 25.5q9 11 24 12.5t25 -7.5q89 -75 250 -75q164 0 253 75zM774 636q0 -51 -37 -87.5t-90 -36.5q-51 0 -87.5 36.5t-36.5 87.5q0 52 36.5 89t87.5 37q53 0 90 -36.5t37 -89.5zM1206 762q51 0 87.5 -37
t36.5 -89q0 -51 -36.5 -87.5t-87.5 -36.5q-52 0 -89 36.5t-37 87.5q0 52 36.5 89t89.5 37z" />
    <glyph glyph-name="uni263A" unicode="&#x263a;" horiz-adv-x="571" 
d="M569 991h-127q-34 0 -47.5 -16.5t-13.5 -44.5v-121h188l-22 -213h-166v-596h-252v596h-127v213h127v121q0 54 10.5 101t38.5 83t77 58t126 24h188v-205z" />
    <glyph glyph-name="uni263B" unicode="&#x263b;" horiz-adv-x="1206" 
d="M1204 907q-26 -37 -57 -70t-66 -59v-30q0 -82 -20.5 -165.5t-60.5 -161.5t-99.5 -146t-137 -118.5t-173.5 -80t-209 -29.5q-105 0 -200 29t-179 82q15 -2 29.5 -3t29.5 -1q88 0 165.5 27.5t142.5 78.5q-41 1 -78 13.5t-67.5 35t-52.5 53.5t-34 68q13 -2 24 -3t23 -1
q17 0 32.5 1.5t31.5 6.5q-42 9 -78.5 31t-62.5 54t-41 72t-15 85v4q25 -14 53.5 -22.5t59.5 -8.5q-51 32 -81 86t-30 119q0 34 8.5 64.5t24.5 58.5q93 -113 223 -181.5t285 -76.5q-6 27 -6 57q0 51 19.5 95.5t52.5 78t77.5 53t95.5 19.5q54 0 100.5 -21.5t80.5 -56.5
q42 8 81 23t74 37q-14 -44 -41.5 -78.5t-64.5 -57.5q73 9 141 39z" />
    <glyph glyph-name="uni2641" unicode="&#x2641;" horiz-adv-x="1255" 
d="M1 681h543v-138h-543v138zM1 136h543v-135h-543v135zM1 408h543v-135h-543v135zM746 697q-25 41 -25 89q0 36 13.5 67.5t37.5 55.5t55.5 37.5t67.5 13.5t67.5 -13.5t55 -37.5t37 -55.5t13.5 -67.5q0 -47 -25 -89l-75 -137l-41 -76l-32 -59l-33 59l-41 75zM895 880
q-20 0 -37 -7.5t-29.5 -20t-20 -30t-7.5 -36.5q0 -39 27.5 -66.5t66.5 -27.5q19 0 36 7.5t29.5 20t20 29.5t7.5 37q0 19 -7.5 36.5t-20 30t-29.5 20t-36 7.5zM1230 1h-549v67h447l-48 276q-23 -17 -44 -26.5t-41.5 -14.5t-40.5 -6t-39 -1q-45 0 -82 12t-73 26
q-24 10 -42.5 17.5t-40.5 10.5q-2 0 -2 0.5t2 0.5h4v43q-1 0 -1 -1q0 -2 3 -2q25 -3 42 -12t43 -19q33 -13 67.5 -24t71.5 -12t77.5 12.5t85.5 50.5l-15 77h-80l47 67h103zM814 476h-133v67h86z" />
    <glyph glyph-name="uni2649" unicode="&#x2649;" horiz-adv-x="1450" 
d="M722 1442q99 0 191.5 -25.5t172.5 -72.5t145.5 -112.5t112.5 -145.5t72.5 -172.5t25.5 -191.5t-25.5 -191.5t-72.5 -172.5t-112.5 -146t-145.5 -112.5t-172.5 -72.5t-191.5 -26t-191.5 26t-172.5 72.5t-146 112.5t-112.5 146t-72.5 172t-26 192q0 99 26 191.5t72.5 172.5
t112.5 145.5t146 112.5t172 72.5t192 25.5zM1085 905q0 14 -6 24t-14.5 16t-18.5 8.5t-19 2.5h-68l-22 61l-34 -12l-102 136l-256 -185h-135q-22 0 -33.5 -16.5t-14.5 -29.5v-4v-62.5v-95v-108.5v-103.5v-79v-35.5q2 -17 14 -26t22 -11l5 -1h426h163q11 1 17.5 5t10.5 8
q5 7 7 13.5t2 11.5l16 1q24 2 32.5 16t7.5 25v101h-10v134h10v206zM965 578q-3 0 -11 1t-16 6t-14.5 15t-7.5 27q0 18 7.5 29t17 17t17.5 8l8 2h89v-105h-90zM1025 891v-22q-4 11 -12 17t-16 8h27q1 -1 1 -3zM927 926h-128l113 40zM847 1012l-222 -86h-53l221 159zM989 426
v-1q-2 0 -9.5 -0.5t-25.5 -0.5h-48h-77h-130.5t-131 0.5t-106 0.5h-55.5q-2 0 -4 2v60v120v149v147q2 2 3 5.5t3 5.5v-60h581l-1 -2q0 -4 0.5 -17t0.5 -29.5v-34.5v-33h-33h-3q-12 0 -28.5 -6.5t-31 -19.5t-24.5 -33t-10 -48q1 -27 11 -47.5t24.5 -33.5t30.5 -19.5t28 -6.5
h36v-98zM971 671q-17 0 -28.5 -11.5t-11.5 -28.5t11.5 -28.5t28.5 -11.5t28.5 11.5t11.5 28.5t-11.5 28.5t-28.5 11.5zM971 611q-8 0 -14 6t-6 14t6 13.5t14 5.5t14 -5.5t6 -13.5t-6 -14t-14 -6z" />
    <glyph glyph-name="uni264B" unicode="&#x264b;" horiz-adv-x="1419" 
d="M1417 745v-548h-104l-174 106v-225h-1010v629h-23l-63 -41h-41v159h41l68 -43h18v82h1010v-227l174 108h104zM995 680h-719v-420h719v420zM487 340q-27 0 -50.5 10.5t-41.5 28t-28.5 41.5t-10.5 51t10.5 50.5t28.5 41t41.5 27.5t50.5 10t51 -10t41.5 -27.5t28 -41
t10.5 -50.5t-10.5 -51t-28 -41.5t-41.5 -28t-51 -10.5zM780 340q-27 0 -50.5 10.5t-41.5 28t-28.5 41.5t-10.5 51t10.5 50.5t28.5 41t41.5 27.5t50.5 10t50.5 -10t41 -27.5t27.5 -41t10 -50.5t-10 -51t-27.5 -41.5t-41 -28t-50.5 -10.5z" />
    <glyph glyph-name="uni265A" unicode="&#x265a;" 
d="M2 639q0 143 54 268.5t147 219.5t218.5 148t268.5 54t268.5 -54t219.5 -148t148 -219.5t54 -268.5t-54 -268.5t-148 -218.5t-219.5 -147t-268.5 -54q-95 0 -183 24.5t-164.5 69t-139.5 107.5t-107.5 139.5t-69 164.5t-24.5 183zM168 637q0 -109 41.5 -205t112.5 -167
t167 -112.5t205 -41.5t205 41.5t167.5 112.5t113 167t41.5 205t-41.5 205t-113 167t-167.5 112.5t-205 41.5t-205 -41.5t-167 -112.5t-112.5 -167t-41.5 -205zM498 805q0 43 16 81t43.5 66.5t64.5 45t78 16.5q42 0 78.5 -16.5t63.5 -45t43 -66.5t16 -81v-115h29q20 0 20 -20
v-305q0 -10 -5.5 -16.5t-14.5 -6.5h-461q-9 0 -16 6.5t-7 16.5v305q0 9 7 14.5t16 5.5h29v115zM594 690h211v115q0 23 -8.5 43.5t-23 36t-34 24.5t-41.5 9q-21 0 -40 -9t-33.5 -24.5t-22.5 -36t-8 -43.5v-115z" />
    <glyph glyph-name="uni265C" unicode="&#x265c;" 
d="M629 625v297h147v-297h221l-295 -295l-297 295h224zM2 639q0 143 54 268.5t147 219.5t218.5 148t268.5 54t268.5 -54t219.5 -148t148 -219.5t54 -268.5t-54 -268.5t-148 -218.5t-219.5 -147t-268.5 -54q-95 0 -183 24.5t-164.5 69t-139.5 107.5t-107.5 139.5t-69 164.5
t-24.5 183zM168 637q0 -109 41.5 -205t112.5 -167t167 -112.5t205 -41.5t205 41.5t167.5 112.5t113 167t41.5 205t-41.5 205t-113 167t-167.5 112.5t-205 41.5t-205 -41.5t-167 -112.5t-112.5 -167t-41.5 -205z" />
    <glyph glyph-name="uni265F" unicode="&#x265f;" horiz-adv-x="997" 
d="M498 664q103 0 193.5 -39t158 -106.5t106.5 -157.5t39 -193q0 -35 -12.5 -65.5t-35 -53t-52.5 -35t-66 -12.5h-663q-35 0 -64.5 12.5t-52 35t-35 53t-12.5 65.5q0 103 39 193t106 157.5t157.5 106.5t193.5 39zM498 1327q52 0 97 -20t78.5 -53.5t52.5 -78.5t19 -96
q0 -52 -19 -97.5t-52.5 -79.5t-78.5 -53.5t-97 -19.5t-97 19.5t-78.5 53.5t-53 79.5t-19.5 97.5q0 51 19.5 96t53 78.5t78.5 53.5t97 20z" />
    <glyph glyph-name="uni2662" unicode="&#x2662;" horiz-adv-x="1259" 
d="M630 1277l575 -332l-571 -330l-576 332zM2 192v664l574 -332v-664zM683 520l574 332v-660l-574 -332v660z" />
    <glyph glyph-name="uni266B" unicode="&#x266b;" horiz-adv-x="1194" 
d="M596 944q-64 0 -119.5 -24t-97 -65.5t-65.5 -97.5t-25 -120q0 -69 24.5 -130.5t61.5 -115.5q-28 15 -57.5 37.5t-53.5 53t-39.5 69.5t-15.5 86q0 81 30.5 151.5t83 123t123 82.5t150.5 30h2q80 0 150.5 -30t123 -82.5t83 -123t30.5 -151.5q0 -47 -15.5 -86t-39.5 -69.5
t-53.5 -53t-57.5 -37.5q37 54 61.5 115.5t24.5 130.5q0 64 -24 120t-65.5 97.5t-97.5 65.5t-120 24h-2zM596 1233q124 0 232.5 -46.5t189.5 -127.5t127.5 -189.5t46.5 -232.5q0 -98 -30 -183t-83 -154t-127 -119t-161 -77l10 25q68 34 125 88t98 121t63.5 143.5t22.5 155.5
q0 107 -40 200.5t-110 163.5t-163.5 110t-200.5 40q-106 0 -199.5 -40t-163.5 -110t-110.5 -163.5t-40.5 -200.5q0 -114 47 -213q20 -45 48 -88t63 -82t76 -71t87 -54l11 -23q-121 31 -213.5 101t-145.5 184q-53 112 -53 246q0 124 46.5 232.5t127.5 189.5t189 127.5
t231 46.5zM768 457q3 -40 1 -81t-8.5 -81.5t-15.5 -79t-19 -72.5q-24 -80 -56 -155q-9 -4 -20 -8q-10 -3 -23.5 -5t-30.5 -2t-30 2t-23 5q-11 4 -21 8q-32 75 -55 155q-20 69 -34.5 151.5t-8.5 162.5q10 25 32 44q19 17 52.5 30.5t89.5 13.5q54 0 87.5 -13.5t51.5 -30.5
q21 -19 31 -44zM727 719q0 -27 -10 -51t-27.5 -41.5t-41.5 -28t-52 -10.5q-27 0 -51 10.5t-41.5 28t-28 41.5t-10.5 51q0 28 10.5 52t28 41.5t41.5 27.5t51 10q28 0 52 -10t41.5 -27.5t27.5 -41.5t10 -52z" />
    <glyph glyph-name="uni266C" unicode="&#x266c;" horiz-adv-x="1272" 
d="M205 869l407 301v-1008l-407 303h-182v404h182zM826 1037q76 -77 114.5 -173.5t38.5 -196.5q0 -101 -38 -197.5t-115 -173.5q-20 -18 -44 -18q-25 0 -43 18t-18 43t18 44q59 59 88 132.5t29 151.5t-29 151t-88 133q-18 18 -18 43t18 43t43 18t44 -18zM1018 1231
q58 -58 102 -125t73.5 -139t44 -148t14.5 -152t-14.5 -152t-44 -148t-73.5 -139t-102 -126q-8 -8 -20 -12.5t-23 -4.5t-23 4.5t-20 12.5q-18 19 -18 44t18 43q100 100 149 223.5t49 254.5t-49.5 254.5t-148.5 223.5q-18 17 -18 42.5t18 43.5t43.5 18t42.5 -18z" />
    <glyph glyph-name="uni267B" unicode="&#x267b;" horiz-adv-x="1072" 
d="M112 867h848v-902h-848v902zM696 164q0 -20 14.5 -35t35.5 -15q20 0 34.5 15t14.5 35v522q0 21 -14.5 35.5t-34.5 14.5q-21 0 -35.5 -14.5t-14.5 -35.5v-522zM486 164q0 -20 15 -35t35 -15t35 15t15 35v522q0 21 -15 35.5t-35 14.5t-35 -14.5t-15 -35.5v-522zM277 164
q0 -20 14.5 -35t34.5 -15q21 0 35.5 15t14.5 35v522q0 21 -14.5 35.5t-35.5 14.5q-20 0 -34.5 -14.5t-14.5 -35.5v-522zM1002 1206q29 0 48.5 -19.5t19.5 -48.5v-182h-1068v182q0 29 19.5 48.5t48.5 19.5h184v31q0 30 11.5 56.5t31.5 46t46.5 31t56.5 11.5h272
q30 0 56.5 -11.5t46.5 -31t31.5 -46t11.5 -56.5v-31h184zM718 1237q0 19 -13 32.5t-33 13.5h-272q-20 0 -33 -13.5t-13 -32.5v-31h364v31z" />
    <glyph glyph-name="uni26A0" unicode="&#x26a0;" horiz-adv-x="1564" 
d="M782 1356l780 -1348h-1560zM860 172v160h-164v-160h164zM819 397l45 379v207h-172v-207l45 -379h82z" />
    <glyph glyph-name="uni2704" unicode="&#x2704;" horiz-adv-x="1384" 
d="M1382 1224v-204h-84v-771h-486l297 -243l-50 -62l-372 305h-3l-371 -305l-50 62l296 243h-487v771h-70v204h638v116h79v-116h663zM1219 1020h-1068v-692h1068v692zM411 506q-43 0 -80.5 16t-65.5 44t-44 65.5t-16 80.5t16 80.5t44 65.5t65.5 44t80.5 16q42 0 79.5 -16
t65.5 -44t44 -65.5t16 -80.5h-205v-206zM469 656h205q0 -43 -16 -80.5t-44 -65.5t-65.5 -44t-79.5 -16v206zM1098 793h-263v80h263v-80zM1098 648h-263v79h263v-79zM1098 503h-263v79h263v-79z" />
    <glyph glyph-name="uni2706" unicode="&#x2706;" horiz-adv-x="1255" 
d="M20 861q-12 34 -15 74.5t2.5 82t20 81.5t37 74t53.5 60t71 39t73.5 4t61 -32t49.5 -57.5t38 -73.5t27 -79.5t16 -75.5l-139 -140q2 -28 22 -68q18 -35 56.5 -87.5t110.5 -124.5q70 -71 123 -109t87 -55q40 -21 68 -23l163 163q19 -4 42.5 -13t48.5 -20.5t51 -25t50 -26.5
q56 -31 116 -68q-10 -73 -38.5 -131.5t-75 -98.5t-108.5 -58.5t-139 -9.5q-16 0 -52 8t-87 26t-112.5 47t-128.5 72.5t-136 103t-133.5 139t-121.5 179t-101 223.5z" />
    <glyph glyph-name="uni2708" unicode="&#x2708;" horiz-adv-x="1238" 
d="M615 1q-127 0 -239 48q-55 23 -104 56t-91 76q-86 85 -132 195q-48 112 -48 239q0 125 48 239q23 56 56.5 104.5t75.5 90.5q42 43 91 76t104 57q57 23 116.5 35.5t122.5 12.5t122.5 -12.5t116.5 -35.5q112 -48 195 -133q87 -86 133 -195q23 -57 35.5 -116.5t12.5 -122.5
t-12.5 -122.5t-35.5 -116.5q-47 -110 -133 -195q-84 -86 -195 -132q-114 -48 -239 -48zM615 1128q-103 0 -196.5 -39t-165.5 -111q-74 -73 -112.5 -166t-38.5 -197q0 -103 38.5 -196.5t112.5 -165.5q72 -73 165.5 -112t196.5 -39t196 39t167 112q73 72 111.5 165.5
t38.5 196.5q0 104 -38.5 197t-111.5 166q-74 72 -167 111t-196 39zM616 896h19v143h-37v-143h18zM737 867l52 127l-30 14l-54 -127q9 -3 16.5 -6.5t15.5 -7.5zM879 705l126 53l-12 31l-127 -52q7 -14 13 -32zM823 802l97 96l-23 23l-97 -95q6 -6 12 -11.5t11 -12.5zM428 827
l-100 94l-24 -24l100 -94q5 6 11.5 12t12.5 12zM522 882l-54 126l-32 -14l54 -126q8 4 16 7t16 7zM359 736l-128 53l-13 -30l129 -54q4 15 12 31zM865 490l127 -53l13 31l-127 53q-3 -8 -6 -15.5t-7 -15.5zM348 522l-130 -53l13 -32l129 54q-3 8 -6.5 15.5t-5.5 15.5z
M1092 706l-414 -27q-7 10 -20 18q-32 21 -68.5 14t-58.5 -39q-10 -15 -13 -33t0.5 -35.5t13 -32.5t25.5 -25q15 -11 33 -14.5t35 0t32 13t26 25.5q2 2 3 4l2 4z" />
    <glyph glyph-name="uni2709" unicode="&#x2709;" horiz-adv-x="1536" 
d="M768 322l-746 639h1502zM1534 776v-776h-1532v782l766 -655z" />
    <glyph glyph-name="uni270D" unicode="&#x270d;" horiz-adv-x="1642" 
d="M1563 1579q38 -39 57 -87.5t19 -98.5t-19 -98.5t-57 -87.5q-1 -1 -2 -1.5t-2 -2.5l-371 371q1 1 3 5q39 38 87.5 57t98.5 19t98.5 -19t87.5 -57zM2 17l277 650l826 825l371 -371l-825 -826zM350 515l-115 -267l267 115z" />
    <glyph glyph-name="uni270E" unicode="&#x270e;" horiz-adv-x="1376" 
d="M1059 559v-602h-1057v1124l27 25l295 299l30 29h459l-88 -88h-258q-25 0 -41 -13.5t-25 -36t-12.5 -50.5t-3.5 -58q0 -70 16 -158q-85 19 -153 20q-29 0 -57 -3.5t-50 -13t-36 -26t-15 -42.5v-920h881v426zM360 780l582 578q37 37 80.5 56.5t97.5 19.5q53 0 98 -19.5
t80 -56.5q39 -35 57.5 -81.5t18.5 -98.5q0 -54 -18.5 -96.5t-57.5 -80.5l-577 -583h-361v362zM489 672h127v-123h56l536 541l-178 176l-541 -541v-53z" />
    <glyph glyph-name="uni270F" unicode="&#x270f;" horiz-adv-x="1255" 
d="M1050 598l167 -578h-1207l169 578h457v80l345 345q43 44 107 44q63 0 106 -44q44 -43 44 -106q0 -64 -44 -107l-212 -212h68zM712 616h73v-76h32l324 324l-106 106l-323 -324v-30zM1113 106l-135 406h-81l3 4l-52 -51h-213l1 47h-385l-138 -406h1000zM927 372h-629v41
h629v-41zM265 311h695v-43h-695v43z" />
    <glyph glyph-name="uni2710" unicode="&#x2710;" horiz-adv-x="1262" 
d="M673 771q-14 23 -21.5 48.5t-7.5 54.5q0 41 16 77.5t43 63.5t63.5 42.5t77.5 15.5t77.5 -15.5t63.5 -42.5t42.5 -63.5t15.5 -77.5q0 -29 -7.5 -54.5t-21.5 -48.5l-80 -147l-53 -97l-37 -68zM844 982q-23 0 -42.5 -8.5t-34 -23t-23 -34.5t-8.5 -42q0 -23 8.5 -42.5t23 -34
t34 -23t42.5 -8.5q22 0 41.5 8.5t34.5 23t23.5 34t8.5 42.5q0 22 -8.5 42t-23.5 34.5t-34.5 23t-41.5 8.5zM1230 1h-1229l120 624h577l53 -80h-548l-57 -313q14 -7 32.5 -19t38.5 -18q52 -17 88 -17.5t53 16.5q16 16 27.5 41t22.5 53q11 27 24.5 56t33 52t48 35.5t69.5 6.5
q29 -5 57 -13.5t58 -19.5q39 -15 78.5 -26.5t82 -11.5t89 17t97.5 59l-17 102h-92l54 80h119zM118 78h994l-57 302q-52 -38 -99.5 -53.5t-92.5 -15.5q-51 0 -96 14t-86 30q-28 11 -54 19.5t-50 12.5q-26 3 -44 -3.5t-32 -22.5t-25 -39t-23 -53q-12 -31 -26 -60t-35 -50
q-30 -30 -86 -30q-47 0 -105 19q-18 6 -34.5 12.5t-30.5 12.5z" />
    <glyph glyph-name="uni2711" unicode="&#x2711;" horiz-adv-x="1055" 
d="M1053 952v-352l-617 -616l-434 432l627 624h334zM938 801q14 13 21 29.5t7 34t-7 34t-21 29.5q-26 26 -62.5 26t-62.5 -26q-13 -13 -19.5 -29.5t-6.5 -34t6.5 -34t19.5 -29.5q26 -26 62.5 -26t62.5 26z" />
    <glyph glyph-name="uni2713" unicode="&#x2713;" horiz-adv-x="1612" 
d="M1610 1253q-113 -102 -217.5 -216.5t-198.5 -233t-175 -236.5t-147 -227.5t-114.5 -205t-77.5 -169.5l-678 684l174 137l394 -305q57 71 151 173.5t221 219.5t284.5 240t342.5 234z" />
    <glyph glyph-name="uni2716" unicode="&#x2716;" horiz-adv-x="1356" 
d="M1354 1038l-409 -405l409 -408l-270 -268l-406 408l-407 -408l-269 268l408 408l-408 405l269 271l407 -410l406 410z" />
    <glyph glyph-name="uni2718" unicode="&#x2718;" horiz-adv-x="1447" 
d="M722 1442q99 0 191.5 -25.5t172.5 -72.5t145.5 -112.5t112.5 -145.5t72.5 -172.5t25.5 -191.5t-25.5 -191.5t-72.5 -172.5t-112.5 -146t-145.5 -112.5t-172.5 -72.5t-191.5 -26t-191.5 26t-172.5 72.5t-146 112.5t-112.5 146t-72.5 172t-26 192q0 99 26 191.5t72.5 172.5
t112.5 145.5t146 112.5t172 72.5t192 25.5zM721 297q24 0 44.5 8.5t35.5 23t24 34.5t9 43t-9 43t-24 35t-35.5 23.5t-44.5 8.5t-44.5 -8.5t-35.5 -23.5t-24 -35t-9 -43t9 -43t24 -34.5t35.5 -23t44.5 -8.5zM836 1147h-228v-127l41 -453h143l44 453v127z" />
    <glyph glyph-name="uni2724" unicode="&#x2724;" horiz-adv-x="954" 
d="M719 418q48 0 90 -18.5t74 -50.5t50.5 -74.5t18.5 -90.5t-18.5 -90.5t-50.5 -74t-74 -50t-90 -18.5q-47 0 -89 18.5t-74 50t-50.5 74t-18.5 90.5q0 22 4.5 44.5t10.5 45.5l-168 172q-26 -8 -52 -12t-46 -4q-48 0 -90.5 18.5t-74.5 50.5t-50.5 74t-18.5 89q0 46 18.5 88
t50.5 74t74.5 50.5t90.5 18.5q20 0 46 -4t52 -12l168 172q-15 45 -15 90q0 48 18.5 90.5t50.5 74t74 50t89 18.5q48 0 90 -18.5t74 -50t50.5 -74t18.5 -90.5t-18.5 -90.5t-50.5 -74.5t-74 -50.5t-90 -18.5q-22 0 -52 5.5t-53 15.5l-163 -164q8 -37 12 -58.5t4 -41.5
q0 -10 -1 -23.5t-3 -27.5t-5 -26.5t-7 -21.5l163 -166q23 10 53 15.5t52 5.5z" />
    <glyph glyph-name="uni2726" unicode="&#x2726;" horiz-adv-x="1120" 
d="M517 1663q149 0 261.5 -40.5t188 -112.5t113.5 -170.5t38 -215.5q0 -167 -61.5 -291.5t-186.5 -226.5q-52 -42 -93.5 -76.5t-70 -71t-43.5 -80t-15 -104.5v-136h-257h-159v185q0 69 10 121t28 92.5t42.5 72t54.5 59.5t64 55t70 58q44 38 79 67.5t59.5 60.5t37.5 68.5
t13 91.5q0 59 -22 99.5t-63 66t-100 37t-132 11.5q-27 0 -69.5 -2t-92.5 -6.5t-104 -12t-105 -18.5v272q47 36 109 63.5t130.5 46t139.5 28t136 9.5zM309 22q-20 0 -37 -7.5t-30 -20.5t-20.5 -30.5t-7.5 -36.5v-181q0 -20 7.5 -37t20.5 -30t30 -20.5t37 -7.5h261
q20 0 37.5 7.5t30 20.5t20 30t7.5 37v181q0 19 -7.5 36.5t-20 30.5t-30 20.5t-37.5 7.5h-261z" />
    <glyph glyph-name="uni272A" unicode="&#x272a;" horiz-adv-x="1229" 
d="M612 805l470 271l-474 273l-470 -271zM1 363v725l607 350l614 -350v-725l-610 -361z" />
    <glyph glyph-name="uni272E" unicode="&#x272e;" 
d="M973 639l-432 -250v502zM2 639q0 143 54 268.5t147 219.5t218.5 148t268.5 54t268.5 -54t219.5 -148t148 -219.5t54 -268.5t-54 -268.5t-148 -218.5t-219.5 -147t-268.5 -54q-95 0 -183 24.5t-164.5 69t-139.5 107.5t-107.5 139.5t-69 164.5t-24.5 183zM168 637
q0 -109 41.5 -205t112.5 -167t167 -112.5t205 -41.5t205 41.5t167.5 112.5t113 167t41.5 205t-41.5 205t-113 167t-167.5 112.5t-205 41.5t-205 -41.5t-167 -112.5t-112.5 -167t-41.5 -205z" />
    <glyph glyph-name="uni2731" unicode="&#x2731;" horiz-adv-x="1460" 
d="M721 297q24 0 44.5 8.5t35.5 23t24 34.5t9 43t-9 43t-24 35t-35.5 23.5t-44.5 8.5t-44.5 -8.5t-35.5 -23.5t-24 -35t-9 -43t9 -43t24 -34.5t35.5 -23t44.5 -8.5zM836 1147h-228v-127l41 -453h143l44 453v127zM1440 270q9 -15 9 -34q0 -29 -20 -49.5t-49 -20.5h-1306
q-29 0 -49 20.5t-20 49.5q0 22 12 39l649 1125h1q9 16 24.5 25.5t35.5 9.5t36 -9.5t25 -25.5l2 -4h1z" />
    <glyph glyph-name="uni2736" unicode="&#x2736;" horiz-adv-x="1192" 
d="M596 1185q123 0 231 -46.5t189 -127.5t127.5 -189t46.5 -231t-46.5 -231t-127.5 -189t-189 -127.5t-231 -46.5t-231 46.5t-189 127.5t-127.5 189t-46.5 231t46.5 231t127.5 189t189 127.5t231 46.5zM678 350h-153v-148h153v148zM824 632q33 45 33 112q0 109 -77 163
q-76 56 -191 56q-89 0 -149 -39q-95 -62 -101 -207h147q0 41 25 82q25 39 84 39q61 0 83 -32q22 -31 22 -70q0 -35 -20 -62q-11 -17 -30 -30l-37 -29q-55 -44 -68 -76t-16 -119h138q2 42 7 60q9 31 39 53l36 29q54 41 75 70z" />
    <glyph glyph-name="uni2738" unicode="&#x2738;" horiz-adv-x="1397" 
d="M2 817v254h1393v-254h-1393v0zM2 416h1393v254h-1393v-254v0zM2 12h1393v256h-1393v-256v0z" />
    <glyph glyph-name="uni2739" unicode="&#x2739;" horiz-adv-x="1360" 
d="M1341 518q9 -3 13 -12t1 -17l-33 -112q-5 -13 -14.5 -20.5t-20.5 -4.5l-108 21l-84 -123l45 -96q5 -11 2.5 -22t-8.5 -17l-96 -66q-8 -6 -17.5 -6t-15.5 8l-82 76l-137 -45l-15 -109q-2 -9 -11.5 -15.5t-29.5 -6.5h-98q-22 0 -30.5 6.5t-10.5 15.5l-14 109l-137 45
l-84 -76q-7 -8 -16 -8t-15 6l-96 66q-7 6 -9.5 17t2.5 22l43 96l-81 123l-111 -21q-9 -3 -19.5 4.5t-13.5 20.5l-35 112q-3 8 1 17t12 12l100 43v160l-100 43q-8 5 -12 13t-1 18l35 110q3 11 13.5 19t19.5 6l111 -23l81 123l-43 98q-5 10 -2.5 21.5t9.5 17.5l96 66q6 8 15 6
t16 -8l84 -76l137 45l14 109q2 11 10.5 16.5t30.5 5.5h98q38 0 41 -22l15 -109l137 -45l84 76q5 6 14 8t17 -6l96 -66q6 -6 8.5 -17.5t-2.5 -21.5l-45 -98l84 -123l108 23q11 2 20.5 -6t14.5 -19l33 -110q3 -10 -0.5 -18t-9.5 -13l-101 -43v-160zM681 377q54 0 102 21t84 57
t57 84t21 102t-21 102t-57 84t-84 57t-102 21t-102 -21t-84 -57t-57 -84t-21 -102t21 -102t57 -84t84 -57t102 -21z" />
    <glyph glyph-name="uni273A" unicode="&#x273a;" horiz-adv-x="1390" 
d="M553 510q-3 -9 -11.5 -29.5t-18 -45t-16.5 -51t-7 -48.5q0 -31 22 -46.5t51 -15.5q43 0 87 23t80 53t58.5 58.5t22.5 40.5q0 6 -4.5 10t-7.5 4q-5 0 -19 -15.5t-31.5 -33.5t-35 -33.5t-29.5 -15.5q-6 0 -9 7t-3 15q0 14 6.5 31.5t11.5 30.5l86 223q14 42 13 69.5
t-11.5 44t-28 23t-38.5 6.5q-23 0 -46 -6t-45 -16.5t-41.5 -23.5t-35.5 -28l-16.5 -16.5t-23.5 -24.5t-21 -25.5t-9 -19.5q0 -5 4 -9.5t11 -4.5q10 0 24 15.5t29.5 34.5t31.5 34.5t31 15.5q14 0 20.5 -6t0.5 -20zM692 940q0 -82 82 -82q18 0 35 6.5t30.5 19t22 30t8.5 38.5
q0 16 -7 30t-18.5 24t-26.5 16t-30 6q-18 0 -35 -7t-30.5 -19t-22 -28t-8.5 -34zM2 639q0 143 54 268.5t147 219.5t218.5 148t268.5 54t268.5 -54t219.5 -148t148 -219.5t54 -268.5t-54 -268.5t-148 -218.5t-219.5 -147t-268.5 -54q-95 0 -183 24.5t-164.5 69t-139.5 107.5
t-107.5 139.5t-69 164.5t-24.5 183z" />
    <glyph glyph-name="uni2748" unicode="&#x2748;" horiz-adv-x="925" 
d="M912 72q0 -24 -13.5 -42.5t-36.5 -18.5h-782q-23 0 -39.5 18.5t-16.5 42.5v1263q0 23 16.5 39t39.5 16h782q23 0 36.5 -16t13.5 -39v-1263zM641 1117q0 34 -13 64t-35.5 52.5t-52.5 35.5t-64 13t-64 -13t-52.5 -35.5t-35.5 -52.5t-13 -64t13 -64t35.5 -52.5t52.5 -35.5
t64 -13t64 13t52.5 35.5t35.5 52.5t13 64zM820 512q0 72 -27 134.5t-73.5 109t-109.5 73.5t-134 27t-133.5 -27t-109 -73.5t-73.5 -109t-27 -134.5q0 -71 27 -133.5t73.5 -109.5t109 -74t133.5 -27t134 27t109.5 74t73.5 109.5t27 133.5zM729 512q0 -52 -20 -98t-54.5 -80
t-80.5 -54t-98 -20q-53 0 -98.5 20t-80 54t-54 80t-19.5 98t19.5 98.5t54 80.5t80 54t98.5 20q52 0 98 -20t80.5 -54t54.5 -80.5t20 -98.5zM588 1117q0 -23 -9 -43.5t-24 -35.5t-35.5 -24t-43.5 -9t-43.5 9t-35.5 24t-24 35.5t-9 43.5t9 43.5t24 35.5t35.5 24t43.5 9
t43.5 -9t35.5 -24t24 -35.5t9 -43.5z" />
    <glyph glyph-name="uni274B" unicode="&#x274b;" horiz-adv-x="1293" 
d="M1269 1269v-1269h-1269v1269h1269zM553 191q28 71 84 172t134 213t174 226.5t203 213.5l-26 61q-117 -72 -217.5 -150.5t-181.5 -153t-142 -140t-99 -110.5l-250 195l-110 -89z" />
    <glyph glyph-name="uni2764" unicode="&#x2764;" horiz-adv-x="1614" 
d="M1372 1307q78 -36 132 -97.5t81 -135.5t24 -154t-40 -154q-18 -39 -60.5 -94.5t-99.5 -119.5t-123.5 -132.5t-133.5 -134.5q-157 -154 -345 -324v4v-4q-188 170 -346 324q-67 66 -134 134.5t-123.5 132.5t-98.5 119.5t-60 94.5q-37 74 -40 154t23.5 154t80.5 135.5
t131 97.5q79 37 161 40t156.5 -23.5t136 -80.5t99.5 -131q3 -11 7 -25.5t7 -31.5q3 17 6 31.5t8 25.5q38 77 99.5 131t135.5 80.5t156 23.5t160 -40z" />
    <glyph glyph-name="uni27A4" unicode="&#x27a4;" horiz-adv-x="553" 
d="M551 -12l-275 272l-274 -272v1079h549v-1079z" />
    <glyph glyph-name="uni27A6" unicode="&#x27a6;" horiz-adv-x="1132" 
d="M1108 701l-146 145l-347 -347q-2 -2 -2 -3l-114 114l349 350l-146 147h406v-406zM1015 1h-921q-19 0 -36 7.5t-29.5 20t-20 29.5t-7.5 36v921q0 19 7.5 35.5t20 29t29.5 20t36 7.5h464v-124h-432v-858h858v414h124v-445q0 -19 -7.5 -36t-20 -29.5t-29.5 -20t-36 -7.5z
" />
    <glyph glyph-name="uni27B2" unicode="&#x27b2;" horiz-adv-x="1487" 
d="M1463 -10q22 -20 22 -46.5t-22 -49.5l-115 -115q-23 -20 -49.5 -20t-46.5 20l-10 8l-360 360q-67 -43 -137 -62t-150 -19h-6q-122 0 -229.5 46t-187 125.5t-125 185.5t-44.5 226q1 122 47.5 229.5t127 187.5t188 126.5t229.5 46.5h2q81 -1 156 -22.5t139.5 -60.5
t117 -93.5t90 -120.5t57.5 -142t19 -157q0 -80 -19.5 -148t-61.5 -135l358 -360zM595 213q87 0 164.5 35t134.5 98q63 56 99 133.5t36 165.5t-35 168.5t-98 140.5q-56 65 -133.5 98t-165.5 35h-2q-93 0 -173.5 -33.5t-139.5 -92.5t-93 -139t-34 -173q-1 -89 32 -168
t92 -138.5t139.5 -94.5t174.5 -35h2z" />
    <glyph glyph-name="uni27F1" unicode="&#x27f1;" horiz-adv-x="1675" 
d="M1594 995q16 0 30 -6.5t25 -17.5t17.5 -25t6.5 -29v-698h-342v-491h-619l-368 375v118h-342v696q0 15 6.5 29t17.5 25t25 17.5t30 6.5h263v283h987v-283h263zM435 995h803v185h-803v-185zM1432 671h-1189v-314h101v174h91v-303q1 -28 16.5 -45.5t40.5 -27t57 -12.5t65 -2
q77 3 175 24q-23 -95 -27 -170q-2 -32 0.5 -62.5t11.5 -54t25.5 -38t43.5 -14.5h395v705h93v-177h101v317zM1493 793q28 0 49 18t21 47q0 32 -21 51.5t-49 19.5q-25 0 -42 -19.5t-17 -51.5q0 -29 17 -47t42 -18zM1125 450h-558v71h558v-71zM567 345h558v-108h-558v108z" />
    <glyph glyph-name="uni27F2" unicode="&#x27f2;" horiz-adv-x="1329" 
d="M45 797v475l153 -156q43 45 96 80t113 60t124.5 38t131.5 13q91 0 176 -23.5t158.5 -66.5t134.5 -103.5t104 -134t67 -158t24 -176.5h-203q0 94 -35.5 178.5t-97.5 147.5q-65 63 -148.5 98t-179.5 35q-94 0 -177 -34.5t-146 -94.5l176 -178h-471zM823 492h461v-463
l-152 149q-44 -44 -97.5 -80t-113.5 -62t-125.5 -40t-132.5 -14q-91 0 -176 24t-158 67t-133.5 104t-103.5 134.5t-66.5 158t-23.5 175.5h202q0 -96 35.5 -179.5t98.5 -148.5q63 -61 147 -97t178 -36q96 0 180.5 36t147.5 99z" />
    <glyph glyph-name="uni8675" unicode="&#x8675;" 
d="M629 625v297h147v-297h221l-295 -295l-297 295h224zM2 639q0 143 54 268.5t147 219.5t218.5 148t268.5 54t268.5 -54t219.5 -148t148 -219.5t54 -268.5t-54 -268.5t-148 -218.5t-219.5 -147t-268.5 -54q-95 0 -183 24.5t-164.5 69t-139.5 107.5t-107.5 139.5t-69 164.5
t-24.5 183zM168 637q0 -109 41.5 -205t112.5 -167t167 -112.5t205 -41.5t205 41.5t167.5 112.5t113 167t41.5 205t-41.5 205t-113 167t-167.5 112.5t-205 41.5t-205 -41.5t-167 -112.5t-112.5 -167t-41.5 -205z" />
    <glyph glyph-name="uniE000" unicode="&#xe000;" horiz-adv-x="1359" 
d="M1114 403q25 0 46.5 9.5t37.5 25.5t25.5 38t9.5 46q0 25 -9.5 46.5t-25.5 37.5t-37.5 25.5t-46.5 9.5q-24 0 -45.5 -9.5t-37.5 -25.5t-25.5 -37.5t-9.5 -46.5q0 -24 9.5 -46t25.5 -38t37.5 -25.5t45.5 -9.5zM247 403q24 0 46 9.5t38 25.5t25.5 38t9.5 46q0 25 -9.5 46.5
t-25.5 37.5t-38 25.5t-46 9.5q-25 0 -46.5 -9.5t-37.5 -25.5t-25.5 -37.5t-9.5 -46.5q0 -24 9.5 -46t25.5 -38t37.5 -25.5t46.5 -9.5zM299 119q0 76 30 145q4 10 8.5 19l9.5 19q-23 11 -48.5 16.5t-51.5 5.5q-49 0 -92.5 -18.5t-75.5 -51t-51 -75.5t-19 -92q0 -33 23.5 -56
t55.5 -23h259q-22 20 -35 49t-13 62zM1114 324q-61 0 -113 -29q9 -16 15 -31q30 -69 30 -145q0 -33 -13 -62t-35 -49h275q33 0 56 23t23 56q0 49 -18.5 92t-51 75.5t-76 51t-92.5 18.5zM673 451q-69 0 -129.5 -26t-106 -71t-71.5 -105.5t-26 -129.5q0 -23 8.5 -43.5
t23.5 -35.5t35.5 -23.5t43.5 -8.5h443q23 0 43 8.5t35 23.5t24 35.5t9 43.5q0 69 -26 129.5t-71 105.5t-105.5 71t-129.5 26zM673 894q34 0 64.5 -13t53 -35.5t35.5 -53t13 -64.5q0 -35 -13 -65t-35.5 -52.5t-53 -35.5t-64.5 -13q-35 0 -65 13t-53 35.5t-36 52.5t-13 65
q0 34 13 64.5t36 53t53 35.5t65 13z" />
    <glyph glyph-name="uniE001" unicode="&#xe001;" horiz-adv-x="1572" 
d="M1192 108l14 11l-62 211h10l-334 1006l-18 -4q0 2 -8.5 27t-31.5 54t-62.5 52.5t-102.5 23.5q-65 0 -111 -18.5t-77 -48.5t-49.5 -66.5t-28 -72.5t-12 -67.5t-2.5 -50.5q0 -75 20 -125.5t54 -86t78.5 -60.5t94.5 -50q44 -23 88.5 -48t80.5 -60t58.5 -84t22.5 -118v-72
q71 -48 118.5 -95t76.5 -85q34 -45 54 -86l-68 -139q-11 -20 -29 -31t-39 -11h-570q28 18 51 43.5t38 56.5t21 66t1 73q-5 42 -24 78.5t-47.5 64.5t-65.5 45.5t-79 21.5q-48 5 -90.5 -7.5t-76.5 -35.5v183q0 17 12.5 30t32.5 13h24v16q0 8 5 14t13 6h109q8 0 13 -6t5 -14
v-28q133 -15 237 -47t185 -72v18q0 45 -14 77.5t-39.5 58t-62.5 46t-83 43.5q-50 24 -102.5 54.5t-96 76.5t-71.5 112.5t-28 163.5q0 96 26.5 173t75 131.5t117.5 84t154 29.5q72 0 125 -25t89 -60.5t56 -75.5t27 -70l-18 -4l338 -1018h8l65 -211l151 -2q34 0 53.5 -16
t29.5 -36q11 -23 15 -51h-370v38q0 17 6 31t20 25zM226 14q-43 0 -80.5 16.5t-65.5 44.5t-44.5 66t-16.5 80t16.5 80t44.5 66t65.5 44.5t80.5 16.5t80.5 -16.5t65.5 -44.5t44 -66t16 -80t-16 -80t-44 -66t-65.5 -44.5t-80.5 -16.5zM305 221q0 33 -23.5 56t-55.5 23
q-33 0 -56.5 -23t-23.5 -56t23.5 -56.5t56.5 -23.5q32 0 55.5 23.5t23.5 56.5z" />
    <glyph glyph-name="uniE002" unicode="&#xe002;" horiz-adv-x="1244" 
d="M888 921q25 0 42 -17.5t17 -41.5t-17 -41t-42 -17q-23 0 -39.5 17t-16.5 41t16.5 41.5t39.5 17.5zM888 444q25 0 42 -17.5t17 -40.5q0 -24 -17 -41.5t-42 -17.5q-23 0 -39.5 17.5t-16.5 41.5q0 23 16.5 40.5t39.5 17.5zM420 560q31 0 59 -12t49 -32.5t33 -48.5t12 -60
q0 -31 -12 -59t-33 -49t-49 -33t-59 -12q-32 0 -60 12t-48.5 33t-32.5 49t-12 59q0 32 12 60t32.5 48.5t48.5 32.5t60 12zM1096 1189q23 0 43.5 -8.5t35.5 -23.5t24 -35.5t9 -44.5v-951q0 -24 -9 -44.5t-24 -36t-35.5 -24.5t-43.5 -9h-966q-23 0 -43 9t-35.5 24.5t-24.5 36
t-9 44.5v951q0 24 9 44.5t24.5 35.5t35.5 23.5t43 8.5h966zM420 1028q-35 0 -65.5 -13t-53 -35.5t-36 -53t-13.5 -64.5t13.5 -64.5t36 -53t53 -36t65.5 -13.5t65 13.5t52.5 36t35 53t12.5 64.5t-12.5 64.5t-35 53t-52.5 35.5t-65 13zM420 168q49 0 93 19t76 51t51 75.5
t19 93.5q0 49 -19 93t-51 77t-76 52t-93 19q-50 0 -93.5 -19t-76.5 -52t-52 -77t-19 -93q0 -50 19 -93.5t52 -75.5t76.5 -51t93.5 -19zM724 147q10 0 17.5 7.5t7.5 18.5q0 9 -7.5 16t-17.5 7q-9 0 -16.5 -7t-7.5 -16q0 -11 7.5 -18.5t16.5 -7.5zM858 147q9 0 16.5 7.5
t7.5 18.5q0 9 -7.5 16t-16.5 7q-11 0 -18.5 -7t-7.5 -16q0 -11 7.5 -18.5t18.5 -7.5zM990 147q11 0 17.5 7.5t6.5 18.5q0 9 -6.5 16t-17.5 7t-17 -7t-6 -16q0 -11 6 -18.5t17 -7.5zM888 263q25 0 47.5 9.5t39.5 26t26.5 39t9.5 48.5q0 25 -9.5 47.5t-26.5 39t-39.5 26
t-47.5 9.5t-47 -9.5t-39 -26t-27 -39t-10 -47.5q0 -26 10 -48.5t27 -39t39 -26t47 -9.5zM888 740q25 0 47.5 9.5t39.5 26t26.5 38.5t9.5 48t-9.5 48.5t-26.5 39t-39.5 26t-47.5 9.5t-47 -9.5t-39 -26t-27 -39t-10 -48.5t10 -48t27 -38.5t39 -26t47 -9.5zM420 769
q-19 0 -36 7t-29.5 20t-20 29.5t-7.5 36.5q0 19 7.5 36t20 30t29.5 20.5t36 7.5t35.5 -7.5t29.5 -20.5t20.5 -30t7.5 -36q0 -20 -7.5 -36.5t-20.5 -29.5t-29.5 -20t-35.5 -7z" />
    <glyph glyph-name="uniE003" unicode="&#xe003;" horiz-adv-x="796" 
d="M86 293l-66 29l267 844q6 -5 15 -11q14 -10 41 -32zM380 1112q105 -78 188 -194q35 -50 69 -112.5t60.5 -139.5t42.5 -168.5t16 -197.5q0 -68 -19 -121.5t-42 -91.5q-27 -44 -61 -78h-481q7 25 14 51q6 22 13 48t13 49t-5 45t-28 40q-19 21 -45 40zM528 104q27 21 49 53
q18 27 33.5 68t15.5 97q0 90 -16.5 149t-36.5 95q-24 41 -53 65l-169 -527h177zM422 184l-58 18l87 289l58 -16q9 -4 14 -13.5t2 -20.5l-71 -239q-2 -11 -12 -16.5t-20 -1.5z" />
    <glyph glyph-name="uniE004" unicode="&#xe004;" horiz-adv-x="720" 
d="M634 1384q26 0 44 -19t18 -45v-324h-679v324q0 26 18 45t44 19h555zM622 1206h-86v-136h86v136zM17 865h679v-779q0 -26 -18 -45t-44 -19h-555q-26 0 -44 19t-18 45v779zM94 706h317v87h-317v-87z" />
    <glyph glyph-name="uniE005" unicode="&#xe005;" horiz-adv-x="1543" 
d="M1523 184h-13v-172h-48v95h-64v-95h-1256v95h-22q-17 0 -29 -11t-12 -28v-56h-59v56q0 42 29 70.5t71 28.5h22v534q0 41 28 69t69 28h1062q41 0 69 -28t28 -69v-534h64v17h-14v73q0 14 10 23.5t23 9.5h9q13 0 23 -9.5t10 -23.5v-73zM241 125q0 -9 7 -15.5t17 -6.5h11v539
q0 10 6.5 16.5t16.5 6.5h18v33h-52q-10 0 -17 -6.5t-7 -16.5v-550zM383 125q0 -9 7.5 -15.5t16.5 -6.5h11v539q0 10 6.5 16.5t16.5 6.5h19v33h-53q-9 0 -16.5 -6.5t-7.5 -16.5v-550zM527 125q0 -9 6.5 -15.5t14.5 -6.5h13v539q0 10 7 16.5t15 6.5h19v33h-54q-8 0 -14.5 -6.5
t-6.5 -16.5v-550zM669 125q0 -9 6.5 -15.5t16.5 -6.5h11v539q0 10 7 16.5t17 6.5h17v33h-52q-10 0 -16.5 -6.5t-6.5 -16.5v-550zM811 125q0 -9 6.5 -15.5t16.5 -6.5h11v539q0 10 6.5 16.5t16.5 6.5h19v33h-53q-10 0 -16.5 -6.5t-6.5 -16.5v-550zM952 125q0 -9 7.5 -15.5
t16.5 -6.5h13v539q0 10 6.5 16.5t14.5 6.5h19v33h-53q-9 0 -16.5 -6.5t-7.5 -16.5v-550zM1096 125q0 -9 6.5 -15.5t16.5 -6.5h12v539q0 10 6.5 16.5t14.5 6.5h19v33h-52q-10 0 -16.5 -6.5t-6.5 -16.5v-550zM1238 125q0 -9 6.5 -15.5t16.5 -6.5h11v539q0 10 7 16.5t17 6.5h17
v33h-52q-10 0 -16.5 -6.5t-6.5 -16.5v-550z" />
    <glyph glyph-name="uniE006" unicode="&#xe006;" horiz-adv-x="1108" 
d="M1034 1184q20 0 34 -14.5t14 -34.5v-163h-1056v163q0 20 14 33.5t34 13.5zM181 1024q23 0 38 15t15 38q0 21 -15 36.5t-38 15.5q-21 0 -35.5 -15.5t-14.5 -36.5q0 -23 14.5 -38t35.5 -15zM337 1024q21 0 36.5 15t15.5 38q0 21 -15.5 36.5t-36.5 15.5t-37 -15.5t-16 -36.5
q0 -23 16 -38t37 -15zM1032 897q20 0 34 -13t14 -33v-1063l-1056 2v1061q0 20 14 33t34 13h960zM547 30q70 0 132 26.5t108 73t72.5 108t26.5 132.5q0 70 -26.5 132.5t-72.5 108.5t-108 73t-132 27q-71 0 -133 -27t-108 -73t-73 -108.5t-27 -132.5q0 -71 27 -132.5t73 -108
t108 -73t133 -26.5zM656 434q30 0 56 -11.5t45.5 -31t31 -46t11.5 -56.5q0 -36 -17 -67.5t-46 -51.5q-38 -35 -86.5 -55t-103.5 -20q-51 0 -96.5 17t-82 47.5t-61 72t-33.5 89.5q-6 25 -6 49q0 40 15 75.5t41 61.5t61 41.5t75 15.5q32 0 61 -10t53 -27.5t42 -41.5t28 -53
q4 2 12 2z" />
    <glyph glyph-name="uniE007" unicode="&#xe007;" horiz-adv-x="1239" 
d="M871 389h-758v3v3v580q0 11 8 18.5t19 7.5h883q11 0 18.5 -7.5t7.5 -18.5v-383h-66v343h-803v-501h691v-45zM871 217h-847l72 140h775v-140zM460 250h242l-26 57h-186zM871 139h-839q-11 0 -19 14.5t-8 25.5l3 6h863v-46zM1176 703q21 0 36 -15t15 -36v-592
q0 -21 -15 -36t-36 -15h-292q-20 0 -35 15t-15 36v592q0 21 15 36t35 15h292zM997 638h66v22h-66v-22zM1030 36q14 0 23 9t9 23q0 13 -9 22.5t-23 9.5q-13 0 -22.5 -9.5t-9.5 -22.5q0 -14 9.5 -23t22.5 -9zM1189 591h-317v-471h317v471z" />
    <glyph glyph-name="uniE008" unicode="&#xe008;" horiz-adv-x="757" 
d="M122 874q15 0 25.5 11t10.5 26t-10.5 25.5t-25.5 10.5q-16 0 -26.5 -10.5t-10.5 -25.5t10.5 -26t26.5 -11zM229 874q15 0 25.5 11t10.5 26t-10.5 25.5t-25.5 10.5t-26 -10.5t-11 -25.5t11 -25.5t26 -10.5v-1zM712 984q14 0 23.5 -9.5t9.5 -23.5v-113h-732v113
q0 14 9.5 23.5t23.5 9.5h666zM374 185q49 0 92 18.5t75 50.5t50.5 75t18.5 92t-18.5 92t-50.5 75t-75 50.5t-92 18.5t-92 -18.5t-75 -50.5t-50.5 -75t-18.5 -92t18.5 -92t50.5 -75t75 -50.5t92 -18.5zM12 18v735q0 14 9.5 23.5t23.5 9.5h666q14 0 23.5 -9.5t9.5 -23.5v-735
h-732zM565 481q7 -24 7 -54q0 -41 -15.5 -77t-42.5 -63t-63 -42.5t-77 -15.5t-77 15.5t-63 42.5t-42.5 63t-15.5 77q0 29 8 58q20 -22 51 -22q27 0 46 17q19 -17 46 -17q26 0 47 18q20 -18 47 -18q29 0 48 19q19 -19 48 -19q28 0 47 19z" />
    <glyph glyph-name="uniE009" unicode="&#xe009;" horiz-adv-x="715" 
d="M18 184q44 16 74.5 54t30.5 108q0 17 -1.5 33.5t-3.5 33.5h-93v160h56q-7 30 -11.5 60t-4.5 64q0 70 26.5 124t73.5 90.5t112.5 55t143.5 18.5q89 0 152 -18t114 -50v-181h-94q-27 23 -62 38.5t-87 15.5q-25 0 -47.5 -6t-40 -18.5t-27.5 -33t-10 -50.5q0 -27 1.5 -54
t6.5 -55h220v-160h-200q3 -30 3 -56q0 -46 -16 -82.5t-35 -57.5h401v-196h-682v163z" />
    <glyph glyph-name="uniE010" unicode="&#xe010;" horiz-adv-x="1195" 
d="M1075 652q14 -2 32.5 -11t34.5 -26t27.5 -41t11.5 -56v-314h-94v-100q0 -31 -13 -51.5t-32.5 -30.5t-42 -10t-42 10.5t-32.5 30.5t-13 51v100h-629v-100q0 -30 -13 -50.5t-32.5 -31t-42 -10.5t-42 10t-32 30.5t-12.5 51.5v100h-94v314q0 32 11 56t27 41t34.5 26t32.5 11
l96 247q13 35 44 61t86 27h138h230h135q28 0 49.5 -7.5t37 -19.5t26.5 -27.5t18 -33.5zM198 394q34 0 57.5 24t23.5 59t-23.5 59t-57.5 24q-33 0 -56.5 -24t-23.5 -59t23.5 -59t56.5 -24zM976 655l-72 194q-7 20 -18.5 33.5t-35.5 14.5h-504q-24 -1 -36 -14.5t-18 -33.5
l-73 -194h757zM998 394q33 0 56.5 24t23.5 59t-23.5 59t-56.5 24q-35 0 -58.5 -24t-23.5 -59t23.5 -59t58.5 -24z" />
    <glyph glyph-name="uniE011" unicode="&#xe011;" horiz-adv-x="1281" 
d="M1048 935q45 0 85 -17.5t70 -47t47 -69.5t17 -85t-17 -85t-47 -70t-70 -47t-85 -17t-85 17t-70 47t-47 70t-17 85t17 85t47 69.5t70 47t85 17.5zM956 152q6 -19 3.5 -38t-11.5 -35.5t-23.5 -28.5t-33.5 -18q-7 -2 -14 -3t-13 -1q-32 0 -58 19t-35 50l-39 134
q-38 -16 -79 -16h-219l14 -65q11 -46 -19 -82q-14 -17 -33.5 -26.5t-41.5 -9.5h-248q-20 0 -38 7.5t-31 21t-20.5 31t-7.5 37.5q0 40 28 68t69 28h128l-18 80q-2 10 -2 15q-28 48 -28 105q0 43 16.5 81.5t44.5 67t66 45t82 16.5h258q37 0 70 -12t59.5 -33t45.5 -49.5
t28 -62.5q7 -11 12 -26z" />
    <glyph glyph-name="uniE012" unicode="&#xe012;" horiz-adv-x="895" 
d="M868 1084l-288 -586h288l-862 -774l288 587h-288l862 773v0z" />
    <glyph glyph-name="uniE013" unicode="&#xe013;" horiz-adv-x="1259" 
d="M1247 756v-708l-84 -22v-1q0 1 -1 1q0 2 -3 5q-4 7 -12 17q-8 11 -20 24.5t-29 28.5q-32 29 -78.5 51.5t-107.5 22.5q-60 0 -104 -21.5t-76 -49.5q-29 -25 -45 -48t-19 -28q-6 -11 -16.5 -18.5t-24.5 -7.5q-13 0 -24 7t-16 18q-1 1 -1 1.5t-2 2.5q-4 7 -12 17
q-16 23 -48 53q-33 29 -79.5 51.5t-107.5 22.5q-59 0 -103 -21.5t-76 -49.5q-16 -14 -28 -27.5t-20.5 -24.5t-13 -18t-4.5 -8l-85 22v708l6 21q0 1 5.5 10t15 22.5t24.5 31t35 35.5q19 18 44.5 35.5t56 31.5t66.5 22.5t77 8.5t77.5 -8.5t67 -22.5t56.5 -31.5t46 -35.5
q13 -11 23.5 -22t18.5 -21q9 10 19 21t23 22q19 18 44.5 35.5t56 31.5t66.5 22.5t77 8.5t77.5 -8.5t67 -22.5t56 -31.5t45.5 -35.5t35.5 -35t25.5 -30.5t15.5 -22.5t6.5 -10zM582 742q-2 3 -4.5 6t-5.5 7q-16 24 -48 53q-33 29 -79.5 52t-107.5 23q-59 0 -103 -21.5
t-76 -49.5q-23 -20 -38.5 -39t-21.5 -30v-571q19 18 44 34.5t55 30t65 21.5t75 8t76 -8.5t66.5 -22t56.5 -30.5t46 -35v572zM1156 742q-2 5 -9 13q-8 11 -20 25t-29 28q-32 29 -78.5 52t-107.5 23q-60 0 -104 -21.5t-76 -49.5q-23 -20 -37.5 -39t-22.5 -30v-571
q20 18 45 34.5t55 30t65 21.5t75 8t76 -8.5t66.5 -22t56 -30.5t45.5 -35v572zM152 398q1 1 14 9.5t37 17.5t59 16.5t82 7.5q46 0 81.5 -7.5t60 -16.5t37.5 -17t15 -9v-73q-43 25 -92 39t-102 14q-36 0 -65 -6t-52 -14t-41 -17.5t-34 -15.5v72zM152 548q1 1 14 9.5t37 17.5
t59 16.5t82 7.5q46 0 81.5 -7.5t60 -16.5t37.5 -17t15 -9v-73q-43 25 -92 39t-102 14q-36 0 -65 -6t-52 -14t-41 -17.5t-34 -15.5v72zM152 698q1 1 14 9.5t37 17.5t59 16.5t82 7.5q46 0 81.5 -7.5t60 -16.5t37.5 -17t15 -9v-73q-43 25 -92 39t-102 14q-36 0 -65 -6t-52 -14
t-41 -17.5t-34 -15.5v72zM729 398q1 1 14 9.5t37 17.5t59 16.5t82 7.5q46 0 81.5 -7.5t60 -16.5t37.5 -17t15 -9v-73q-43 25 -92 39t-102 14q-36 0 -65 -6t-52 -14t-41 -17.5t-34 -15.5v72zM729 548q1 1 14 9.5t37 17.5t59 16.5t82 7.5q46 0 81.5 -7.5t60 -16.5t37.5 -17
t15 -9v-73q-43 25 -92 39t-102 14q-36 0 -65 -6t-52 -14t-41 -17.5t-34 -15.5v72zM729 698q1 1 14 9.5t37 17.5t59 16.5t82 7.5q46 0 81.5 -7.5t60 -16.5t37.5 -17t15 -9v-73q-43 25 -92 39t-102 14q-36 0 -65 -6t-52 -14t-41 -17.5t-34 -15.5v72z" />
    <glyph glyph-name="uniE014" unicode="&#xe014;" horiz-adv-x="1449" 
d="M722 1442q99 0 191.5 -25.5t172.5 -72.5t145.5 -112.5t112.5 -145.5t72.5 -172.5t25.5 -191.5t-25.5 -191.5t-72.5 -172.5t-112.5 -146t-145.5 -112.5t-172.5 -72.5t-191.5 -26t-191.5 26t-172.5 72.5t-146 112.5t-112.5 146t-72.5 172t-26 192q0 99 26 191.5t72.5 172.5
t112.5 145.5t146 112.5t172 72.5t192 25.5zM340 756l72 -73l310 310l312 -310l72 73l-384 382zM449 406h198v232h151v-232h197v252l-273 277l-273 -277v-252z" />
    <glyph glyph-name="uniE015" unicode="&#xe015;" horiz-adv-x="1264" 
d="M1255 379l-619 -365l-622 364v730l618 358l623 -359v-728zM636 825l476 274l-480 277l-475 -274z" />
    <glyph glyph-name="uniE016" unicode="&#xe016;" horiz-adv-x="1759" 
d="M875 1462q96 0 185 -25t166.5 -70.5t141 -109t109 -141t70.5 -167t25 -185.5t-25 -185.5t-70.5 -167t-109 -141t-141 -109t-166.5 -70.5t-185 -25t-185.5 25t-167 70.5t-141.5 109t-109.5 141t-70.5 167t-25 185.5t25 185.5t70.5 167t109.5 141t141.5 109t166.5 70.5
t186 25zM875 160q125 0 235 47.5t192 129.5t129.5 192t47.5 235t-47.5 235.5t-129.5 192.5t-192 129.5t-235 47.5t-235.5 -47.5t-192.5 -129.5t-129.5 -192.5t-47.5 -235.5t47.5 -235t129.5 -192t192.5 -129.5t235.5 -47.5zM1312 887l10.5 -45.5t7.5 -37t4.5 -34t1.5 -35.5
q0 -96 -36.5 -180t-99 -146.5t-146.5 -99t-179 -36.5q-96 0 -180 36.5t-146.5 99.5t-99 147t-36.5 180q0 19 1.5 35.5t5 33.5t8 36.5l10.5 45.5h874z" />
    <glyph glyph-name="uniE017" unicode="&#xe017;" horiz-adv-x="1445" 
d="M686 585l-65 107l789 411zM695 1213q-123 0 -231.5 -47t-189.5 -128t-128 -189.5t-47 -231.5q0 -79 19.5 -152t55.5 -137t86 -117.5t111 -93.5q-81 42 -148.5 103.5t-115.5 138.5t-74.5 167t-26.5 188q0 139 52.5 261t143.5 213t213.5 143.5t261.5 52.5
q114 0 215.5 -35.5t186.5 -98.5l-106 -106q-63 33 -133 51t-145 18z" />
    <glyph glyph-name="uniE018" unicode="&#xe018;" horiz-adv-x="1197" 
d="M1113 268h-1016q-38 0 -57 19t-7 56l172 524q6 18 18.5 35t29 30t36 20.5t38.5 7.5h91q-4 0 -5.5 14.5t-1.5 28.5q0 43 16.5 80t44.5 64.5t66 43t81 15.5t81 -15t66 -42t44.5 -63.5t16.5 -79.5q0 -14 -2 -30t-5 -16h63q19 0 38.5 -8.5t36 -23t29 -32.5t18.5 -36l171 -512
q12 -36 -6.5 -58t-56.5 -22zM510 1003q0 -15 4 -29t11 -14h187q8 0 11.5 14t3.5 29q0 22 -8.5 42t-23 35t-34.5 23.5t-42 8.5q-23 0 -42.5 -8.5t-34.5 -23.5t-23.5 -35t-8.5 -42z" />
    <glyph glyph-name="uniE019" unicode="&#xe019;" horiz-adv-x="1673" 
d="M151 886q20 63 57 110t86.5 78t109 46.5t124.5 15.5h142v-748h-142q-65 0 -124 15.5t-108 46.5t-86 78t-58 110h-147v248h146zM1668 638h-150q-21 -63 -57.5 -110t-85.5 -78t-108.5 -46.5t-124.5 -15.5h-140v84h-207v166h207v248h-207v166h207v84h140q66 0 125.5 -15.5
t108.5 -46.5t86 -78t57 -110h149v-248z" />
    <glyph glyph-name="uniE020" unicode="&#xe020;" horiz-adv-x="1276" 
d="M926 1015h83v-89v-206l-62 -112v238l-528 -524h240l-112 -61h-206h-86v78v207l62 112v-239l532 534h-240l112 62h205zM1026 1267q50 0 93 -19.5t74.5 -53.5t49.5 -78.5t18 -94.5v-771q0 -50 -19 -94t-52 -76.5t-77 -51.5t-94 -19h-772q-50 0 -94.5 19t-77.5 51.5
t-52.5 76.5t-19.5 94v771q0 50 19.5 94.5t52.5 78.5t77.5 53.5t94.5 19.5h772h7zM1136 1021q0 57 -30 89t-87 32h-772q-57 0 -88 -32t-31 -89v-771q0 -57 31 -86.5t88 -29.5h772q57 0 87 29.5t30 86.5v771z" />
    <glyph glyph-name="uniE021" unicode="&#xe021;" horiz-adv-x="1321" 
d="M1172 682q13 -13 13 -31t-13 -31l-600 -600q-13 -13 -31 -13t-31 13l-485 486q-13 13 -13 30.5t13 30.5l240 240q-30 14 -56.5 32t-49.5 41q-27 27 -38.5 50.5t-14 44t2.5 36t11 26.5q21 35 67.5 58.5t109 34.5t134 7.5t142.5 -22.5l52 52q13 13 30.5 13t30.5 -13z
M203 924q23 -23 50.5 -39.5t58.5 -29.5l208 208q-51 10 -105.5 11.5t-103.5 -6t-85.5 -23t-51.5 -40.5q-19 -33 29 -81zM732 776q-38 -11 -86.5 -17.5t-102.5 -6.5q-53 0 -107.5 7t-106.5 24l-168 -168q61 26 135.5 29.5t156 -4t167 -20t170 -18.5t163.5 0t148 37
q10 13 -2 27l-429 429q-6 6 -14.5 6t-14.5 -6l-261 -261q44 -11 89.5 -15.5t88.5 -3.5t81.5 6t67.5 13q1 11 5.5 21.5t12.5 18.5q20 19 46.5 19t45.5 -19q19 -20 19 -46.5t-19 -45.5q-17 -18 -41.5 -19t-43.5 13zM1184 612q34 -69 60 -130q11 -26 22 -52.5t19.5 -50.5
t13.5 -44t5 -32q0 -25 -9.5 -46.5t-26 -38t-38 -26t-46.5 -9.5t-46.5 9.5t-37.5 26t-25.5 38t-9.5 46.5q0 12 5 32t13 44t19 50.5t22 52.5q26 61 60 130z" />
    <glyph glyph-name="uniE022" unicode="&#xe022;" horiz-adv-x="939" 
d="M256 1208q-2 8 4 15.5t14 7.5l439 -1q9 0 15 -7.5t4 -15.5l-100 -455h-276zM494 1027q-25 0 -46.5 -9.5t-37.5 -25.5t-25.5 -37.5t-9.5 -46.5q0 -24 9.5 -46t25.5 -38t37.5 -25.5t46.5 -9.5t46.5 9.5t37.5 25.5t25.5 38t9.5 46q0 25 -9.5 46.5t-25.5 37.5t-37.5 25.5
t-46.5 9.5zM494 822q-18 0 -33.5 7t-27.5 18.5t-18.5 27t-6.5 33.5q0 36 25 61t61 25q18 0 33.5 -6.5t27 -18.5t18.5 -27.5t7 -33.5t-7 -33.5t-18.5 -27t-27 -18.5t-33.5 -7zM866 1114q10 -9 14.5 -22t3.5 -27l-50 -727l44 -136h-4l1 -1l-54 -55l-55 55l1 1h-3l1 -1l-54 -55
l-54 55l1 1h-3l1 -1l-54 -55l-55 55l1 1h-3l1 -1l-54 -55l-54 55v1h-2l1 -1l-56 -55l-54 55l1 1h-2v-1l-54 -55l-54 55l1 1h-4l1 -1l-54 -55l-54 55l1 1h-1l44 136l-50 727q-1 14 3.5 27t14.5 22l67 67h43l102 -478h323l103 478h42zM183 374l4 -27h612l4 27h-620z" />
    <glyph glyph-name="uniE024" unicode="&#xe024;" horiz-adv-x="1692" 
d="M614 140h-591v422q0 256 45 405q47 149 168 266q123 118 310 185l116 -244q-176 -58 -253 -164q-77 -105 -81 -280h286v-590zM1599 140h-590v422q0 259 45 406q45 146 168 265q124 118 310 185l116 -244q-175 -58 -254 -164q-77 -105 -81 -280h286v-590z" />
    <glyph glyph-name="uniE025" unicode="&#xe025;" horiz-adv-x="1258" 
d="M636 124l583 389v-107l-583 -389l-594 389v107zM1219 1603v-1017l-583 -389l-594 389v1017h1177zM707 1259h-107l-53 -277l-55 230q-6 27 -17 37t-34 10h-56l-64 -276l-56 276h-112l108 -465h97l71 266l73 -266h95zM968 863q0 11 -7.5 18t-18.5 7h-66q-11 0 -18 -7
t-7 -18v-46q0 -10 7 -16.5t18 -6.5h66q11 0 18.5 6.5t7.5 16.5v46zM1018 1037q32 26 48 57.5t16 74.5q0 60 -38 99t-115 39q-33 0 -70.5 -9.5t-60.5 -28.5v-69q26 5 53 7.5t41 2.5q38 0 59.5 -12.5t21.5 -42.5q0 -14 -3.5 -23.5t-9.5 -17.5t-15 -15.5l-21 -17.5
q-14 -12 -26.5 -22t-22 -22t-15 -29t-5.5 -43v-48h42h64v35q0 15 4 26.5t11.5 20.5t18 18t23.5 20z" />
    <glyph glyph-name="uniE026" unicode="&#xe026;" horiz-adv-x="605" 
d="M262 1147q14 43 9.5 71.5t-15.5 45.5q-12 20 -32 31l-62 -106l-40 4l51 139l-151 4v50q28 15 71 26q37 10 95 18.5t141 8.5q41 0 68.5 -4.5t44.5 -12t25 -16.5t10 -19q5 -23 -16 -51h-53q13 -29 23 -61.5t17 -60.5q8 -33 13 -64zM461 1123q43 -162 69 -293t39 -235
t16 -183t-1 -136q-9 -135 -48 -198q-110 -14 -178 -15t-105 2q-44 4 -64 13q-27 64 -37.5 143t-10.5 164.5t9 173.5t23 170q32 192 89 394h199z" />
    <glyph glyph-name="uniE027" unicode="&#xe027;" horiz-adv-x="1603" 
d="M719 508l-432 -454q-14 -13 -30.5 -13.5t-34 6.5t-34.5 18t-30 21l-60 44q-13 10 -26 22.5t-20.5 26.5t-7.5 28.5t14 27.5l501 463zM1440 1186q17 -15 39 -38.5t43 -54.5t37 -68.5t21.5 -80t-4 -90t-39.5 -97.5q-5 -16 -13 -28q-7 -11 -18.5 -20.5t-28.5 -10.5
q3 67 -14 128q-8 26 -20.5 52.5t-32 51.5t-47 46t-65.5 35q-17 -6 -36 -4q-29 -13 -63.5 -20.5t-72.5 -3.5l-108 -102l-3 -9q-2 -5 -3.5 -10.5t-3.5 -11.5q3 -35 -27 -65l-43 -45l-124 137l-31 37l10 9q14 14 31 21.5t35 9.5l-4 3q2 -2 7 -3q4 1 12 1q10 2 25.5 11t39.5 32
q23 23 39.5 38.5t26.5 25.5l18 18q-3 15 -5 32q-2 14 -2 32t5 38q-4 14 -1 31q-1 12 -9 23q-7 10 -21.5 20t-41.5 18q-21 -11 -39.5 -13t-29.5 6l-96 70q-17 12 -8 41t39 58l80 79q15 14 31 24.5t31.5 15.5t28.5 5t21 -6l96 -70q11 -8 11 -25t-11 -37q8 -14 27 -31t56 -33
q38 3 67 -18l161 -118q20 -13 27 -36zM192 1441q5 0 32 3.5t65 2t80.5 -11t77 -36t55.5 -73.5t16 -122q-3 -18 1 -36q3 -16 11 -34.5t26 -36.5l157 -189l350 -386q15 -20 34 -32t36 -19q19 -8 40 -11q86 -19 133 -50t66 -66.5t17.5 -73t-11.5 -68t-22.5 -51.5t-13.5 -25
q-4 -8 -9 -8t-10 5q-6 4 -12 14l-59 129q-5 16 -13.5 23.5t-16.5 11.5q-10 4 -21 4q-32 2 -59 -7.5t-47 -23.5q-24 -16 -43 -37q-10 -7 -13 -13t-2 -11q1 -6 5 -11l62 -123q8 -21 0.5 -28.5t-19.5 -8.5q-14 -1 -35 6q-40 16 -68.5 34.5t-47 39t-29.5 40.5t-16 39
q-12 44 -1 89q11 32 14.5 52.5t3.5 34.5q-19 13 -32 31l-366 435l-127 143q-6 6 -10 11.5t-8 10.5q-13 5 -41 11t-81 7q-55 5 -101 28q-20 10 -39.5 24.5t-36 35.5t-29.5 49.5t-19 65.5q0 19 5 30q5 10 15 13.5t32 -9.5l119 -87q5 -5 11 -7q5 -2 13 -1.5t19 6.5q29 9 54 23
q21 12 41 31t27 46q4 8 2 17q-2 8 -8 17.5t-23 18.5l-127 85q-9 8 -13 14q-4 5 -3 9.5t12 5.5z" />
    <glyph glyph-name="uniE028" unicode="&#xe028;" horiz-adv-x="1430" 
d="M1414 1172q1 -5 1 -14q0 -54 -20.5 -101t-55.5 -82t-82 -55.5t-101 -20.5q-10 0 -19 1t-19 2q-5 1 -8.5 1h-8.5q-8 1 -14 0.5t-13 -2.5q-14 -3 -25 -10q-2 -2 -4 -2.5t-3 -1.5l-2 -1q-8 -6 -14 -12l-456 -455l-6 -6t-6 -7q-1 -1 -2 -3t-2 -3.5t-2 -3.5q-5 -6 -8 -16
q-3 -8 -4 -16.5t-2 -16.5q0 -16 3 -29q3 -20 3 -41q0 -53 -20.5 -100t-55.5 -82t-82 -55.5t-101 -20.5q-14 0 -27 1.5t-27 3.5q-35 7 -66 24q-12 7 -22 14l-12 8q-6 6 1 9l180 98q7 3 9 13l2 102q0 9 -8 13l-91 35q-9 3 -17 0l-170 -94q-3 -2 -6 -1t-3 5q-1 1 -1 4v10
q0 3 -0.5 6.5t-0.5 6.5q0 54 20.5 101t55.5 82t82 55.5t101 20.5q10 0 19 -0.5t19 -1.5q5 -1 8.5 -1.5t8.5 -0.5h14.5t12.5 2q13 3 26 10q4 2 6 4q1 1 2 1q6 6 14 12l456 455q2 3 6 7t6 7q1 0 2 2q1 1 1.5 3t2.5 4q3 4 4.5 8t3.5 9q6 15 6 32q0 15 -3 30q-3 19 -3 40
q0 54 20.5 101t55.5 82t82 55.5t101 20.5q27 0 54 -6q34 -8 66 -24q5 -3 11 -6.5t11 -6.5l12 -8q6 -5 -1 -10l-180 -97q-7 -4 -9 -13l-2 -103q0 -8 8 -12l91 -36q8 -3 16 1l171 94q9 4 9 -5v-4q0 -2 0.5 -4.5t0.5 -4.5z" />
    <glyph glyph-name="uniE029" unicode="&#xe029;" horiz-adv-x="1088" 
d="M1071 1024q0 -54 -22 -124t-58.5 -148.5t-83 -160.5t-94.5 -160q-114 -182 -257 -379q-144 197 -258 379q-48 78 -94.5 160t-82.5 160.5t-58 148.5t-22 124q0 106 40.5 200t110.5 164t163.5 110.5t200.5 40.5t201 -40.5t163.5 -110.5t110 -164t40.5 -200z" />
    <glyph glyph-name="uniE030" unicode="&#xe030;" horiz-adv-x="1072" 
d="M542 1518q101 0 189.5 -38.5t154.5 -104.5t104.5 -154.5t38.5 -188.5q0 -49 -19.5 -115.5t-51 -143t-72.5 -158t-83.5 -159.5t-84.5 -149t-75.5 -125.5t-55.5 -89t-26 -39.5l-19 -29l-19 29q-4 5 -25.5 39.5t-55 89t-75 125.5t-84.5 149t-83.5 159.5t-72.5 158t-51 143
t-19 115.5q0 100 38 188.5t104 154.5t154.5 104.5t188.5 38.5zM745 1021q0 42 -16 79t-43.5 64.5t-64.5 43.5t-79 16t-78.5 -16t-64 -43.5t-43.5 -64.5t-16 -79t16 -78.5t43.5 -64t64 -43.5t78.5 -16t79 16t64.5 43.5t43.5 64t16 78.5z" />
    <glyph glyph-name="uniE031" unicode="&#xe031;" horiz-adv-x="1789" 
d="M1532 773v181q-358 -6 -506 -437q-28 -81 -43.5 -160t-23 -142t-9 -104t-1.5 -47v-43h-110v53q-1 19 -4 67t-12.5 113.5t-27.5 142.5t-47.5 154.5t-72.5 149.5t-103.5 128t-140 90t-181.5 35v-181l-224 225l224 225v-175q213 -2 364.5 -128.5t235.5 -372.5
q14 -40 25 -79.5t19 -77.5q8 38 18.5 77.5t24.5 79.5q84 244 234 370.5t361 130.5v175l225 -225z" />
    <glyph glyph-name="uniE032" unicode="&#xe032;" horiz-adv-x="1156" 
d="M735 1218q101 22 181 23q34 0 67 -4t58.5 -15t41.5 -30.5t17 -50.5v-1091h-1040v1538h594q29 0 48 -16t30.5 -42t16 -59.5t4.5 -67.5q1 -82 -18 -185zM972 327h-783v-83h783v83zM972 615h-783v-82h783v82zM972 904h-783v-83h783v83z" />
    <glyph glyph-name="uniE033" unicode="&#xe033;" horiz-adv-x="1701" 
d="M1606 335q0 -14 -5.5 -26t-14.5 -22q3 -17 5 -42t1.5 -52.5t-3.5 -55t-10 -48.5q-8 -26 -10 -43.5t-4 -25.5t-6.5 -5.5t-17.5 17.5q-1 1 -1 2q-3 -12 -6.5 -22t-7 -13.5t-7 0.5t-7.5 21q-5 23 -7.5 36t-4.5 26.5t-5 31.5t-7 52q-5 35 0.5 64.5t14.5 49.5
q-14 9 -22.5 23.5t-8.5 31.5q0 23 14 41t36 23v256l34 15v-271q22 -5 36 -23t14 -41zM846 407l-828 367l828 315l829 -315zM1411 606v-251l-2 -95q0 -33 -46 -69.5t-124 -67t-180 -51t-213 -20.5t-212.5 17t-179.5 46t-124 66.5t-46 78.5h-2v346l564 -250z" />
    <glyph glyph-name="uniE034" unicode="&#xe034;" horiz-adv-x="1179" 
d="M1157 1211v-1215h-1140v1593h763l28 -28l321 -322zM1061 91v994q-1 28 -15.5 46t-38 28.5t-53.5 14t-61 3.5q-73 -1 -165 -21q18 94 17 168q0 31 -4.5 61.5t-15 54.5t-27.5 38.5t-44 14.5h-541v-1402h948zM979 621h-760v118h760v-118zM979 819h-760v118h760v-118z
M979 423h-760v118h760v-118z" />
    <glyph glyph-name="uniE035" unicode="&#xe035;" horiz-adv-x="1625" 
d="M1602 1482l-685 -685l685 -685l-106 -106l-685 685l-685 -685l-106 107l685 684l-685 685l106 107l685 -685l685 685l106 -107v0z" />
    <glyph glyph-name="uniE036" unicode="&#xe036;" horiz-adv-x="2137" 
d="M1141 872h969v-150h-969v-969l-150 1v968h-968l-1 151h969v969l150 -1v-969z" />
    <glyph glyph-name="uniE037" unicode="&#xe037;" horiz-adv-x="1211" 
d="M597 559l-266 278l72 75l194 -203l194 203l72 -75zM603 197q-122 0 -230 46.5t-188 126.5t-126.5 187.5t-46.5 229.5q0 81 21 156.5t59.5 141t92.5 119.5t120 92.5t141 59.5t157 21q81 0 156.5 -21t141 -59.5t119.5 -92.5t92.5 -119.5t59.5 -140.5t21 -157
q0 -122 -46.5 -229.5t-126.5 -187.5t-187.5 -126.5t-229.5 -46.5zM603 1332q-113 0 -212 -43t-173 -117t-117 -173t-43 -212t43 -212t117 -173t173 -117t212 -43q112 0 211.5 43t173 117t116.5 173t43 212t-43 212t-116.5 173t-173 117t-211.5 43z" />
    <glyph glyph-name="uniE038" unicode="&#xe038;" horiz-adv-x="563" 
d="M277 559l-266 278l72 75l194 -203l194 203v0l72 -75z" />
    <glyph glyph-name="uniE039" unicode="&#xe039;" horiz-adv-x="1680" 
d="M500 952v-569h-176v569h176zM791 952v-569h-176v569h176zM1083 952v-569h-177v569h177zM1373 952v-569h-176v569h176zM1461 326v-76h-1244v76h1244zM838 1410l623 -399h-1244z" />
    <glyph glyph-name="uniE040" unicode="&#xe040;" horiz-adv-x="1319" 
d="M1294 444h-250v-147h-209v-208h-815v1139h209v209h250v146h546l20 -20l229 -229l20 -20v-870zM767 868q-1 20 -11.5 32.5t-27.5 20t-38.5 10t-43.5 2.5q-52 -1 -118 -15q12 67 12 120q0 22 -3 44t-10.5 39t-19.5 27.5t-31 10.5h-387v-1002h678v711zM975 1076
q-1 20 -11.5 33t-27 20.5t-38 10t-43.5 2.5q-52 -1 -118 -15q12 67 12 120q0 22 -3 44t-10.5 39t-20 27.5t-31.5 10.5h-387v-140h268l20 -20l230 -230l20 -20v-592h140v710zM1226 1223q-1 20 -11.5 33t-27 20.5t-38 10t-43.5 2.5q-52 -1 -118 -15q12 67 12 120q0 22 -3 44
t-10.5 39t-20 27.5t-31.5 10.5h-387v-78h226l20 -20l230 -230l20 -20v-654h182v710zM165 479h543v-85h-543v85zM165 620h543v-84h-543v84zM165 762h543v-85h-543v85z" />
    <glyph glyph-name="uniE041" unicode="&#xe041;" horiz-adv-x="1435" 
d="M1414 677h-165v-454h-426v371h-193v-371h-426v454h-164l687 701l247 -253v129h192v-325z" />
    <glyph glyph-name="uniE042" unicode="&#xe042;" horiz-adv-x="1297" 
d="M1280 1260v-1032h-1267v1032h191l384 137q0 17 11.5 29t28.5 12t29.5 -12t12.5 -29l384 -137h226zM286 1260h686l-312 111q-12 -15 -32 -15q-19 0 -31 15zM123 1151v-610h181q2 7 4.5 21.5t5.5 34.5q-21 4 -35.5 20.5t-14.5 38.5q0 26 18 43.5t43 17.5t42.5 -17.5
t17.5 -43.5q0 -22 -14 -38.5t-35 -20.5q2 -20 4.5 -34.5t4.5 -21.5h384q2 14 6.5 40t9.5 60q-25 4 -46.5 15.5t-37 29.5t-24.5 41t-9 49q0 28 10.5 52.5t29 43t43.5 29t53 10.5t53 -10.5t43.5 -29t29 -43t10.5 -52.5q0 -26 -9 -48.5t-24.5 -40.5t-36.5 -30t-45 -16
q4 -34 8.5 -60t6.5 -40h155q2 6 4.5 20.5t5.5 34.5q-28 6 -46.5 29t-18.5 52q0 18 6.5 33t18 26.5t27 18t32.5 6.5t32.5 -6.5t27 -18t18 -26.5t6.5 -33q0 -29 -18.5 -52t-46.5 -29q3 -20 5.5 -34.5t3.5 -20.5h158v610h-1047zM1170 338v176h-1047v-176h1047z" />
    <glyph glyph-name="uniE043" unicode="&#xe043;" horiz-adv-x="1384" 
d="M798 668q19 0 36.5 -7.5t30.5 -20t20.5 -30t7.5 -37.5t-7.5 -37.5t-20.5 -30t-30.5 -20t-36.5 -7.5q-40 0 -67.5 27.5t-27.5 67.5t27.5 67.5t67.5 27.5zM692 1348q91 0 175 -23.5t157.5 -66.5t133.5 -103t103 -133t66.5 -157t23.5 -175t-23.5 -175t-66.5 -157.5
t-103 -133.5t-133.5 -103t-157.5 -66.5t-175 -23.5t-175 23.5t-157 66.5t-133.5 103t-103 133.5t-66 157.5t-23.5 175t23.5 175t66 157t103 133t133.5 103t157 66.5t175 23.5zM692 1107q-28 0 -53 -10.5t-43.5 -29.5t-29.5 -44t-11 -53t11 -53t29.5 -43.5t43.5 -29.5t53 -11
t53 11t44 29.5t29.5 43.5t10.5 53t-10.5 53t-29.5 44t-44 29.5t-53 10.5zM972 432q25 31 32 59.5t4.5 52.5t-10 42t-11.5 27q-11 24 -26 49.5t-29 47.5q-21 35 -48 59.5t-76 24.5h-212q-38 0 -64 -17t-45.5 -42t-33 -53.5t-25.5 -50.5q-9 -17 -18 -38t-16.5 -42t-12 -40.5
t-5.5 -34.5q-2 -30 6 -54t18.5 -42t21 -28.5t13.5 -12.5q34 -24 75.5 -42.5t105.5 -23.5q24 -2 45.5 2t39 12.5t28.5 20.5t13 25q5 31 -13.5 50.5t-60.5 17.5q-32 -2 -58 1.5t-45.5 8.5t-33 10.5t-19.5 8.5q-16 8 -16.5 12t6 6t16 2.5t13.5 0.5q20 2 37.5 6.5t28.5 12.5
q5 4 5.5 6.5t-2.5 8t-8 16.5t-12 31q-5 16 -4.5 27t4 18.5t8.5 11.5t9 6q20 6 32.5 -2t23.5 -29q8 -14 17 -28t14 -20q8 -9 15.5 -19t24.5 -20q29 -16 57 -18q13 -1 17 -0.5t16 2.5q-6 -6 -18.5 -16.5t-21.5 -24t-10 -29.5t14 -33q9 -9 21.5 -12.5t26.5 -3t26.5 3.5t21.5 6
q17 7 44.5 27.5t53.5 52.5z" />
    <glyph glyph-name="uniE044" unicode="&#xe044;" horiz-adv-x="1396" 
d="M952 761h-1h1zM698 1349q92 0 176.5 -23.5t158.5 -67t134.5 -104t104 -134t67 -158.5t23.5 -176q0 -92 -23.5 -176.5t-67 -158.5t-104 -134.5t-134.5 -104t-158.5 -67t-176.5 -23.5q-34 0 -67 3.5t-65 9.5v290q44 2 81 21t62 48q19 19 30 42t15.5 47.5t4 49t-4.5 45.5
q-6 34 -20 69.5t-30 70.5q-30 69 -44 119.5t6 88.5q14 7 41 15.5t59.5 16.5t67.5 13.5t65 7.5q-22 -23 -44 -56.5t-39 -71t-28 -74t-11 -64.5q0 -38 13.5 -70.5t37 -57.5t55 -39.5t67.5 -14.5h-3h5h-2q36 0 67 14.5t54.5 39.5t37 57.5t13.5 70.5q0 31 -13 72t-33 81.5
t-44.5 75t-48.5 53.5q-1 1 -1 1.5t-1 1.5q12 4 24.5 13.5t22 22t15 27.5t2.5 31q0 3 -12.5 1t-28.5 -9.5t-31.5 -21.5t-20.5 -35q-5 21 -20.5 35t-31.5 21.5t-28.5 9.5t-12.5 -1q-2 -13 1 -25.5t9.5 -23t15.5 -19.5t19 -16q-14 2 -33.5 4t-41.5 4.5t-44 4t-41 2.5
q-8 17 -23 27t-34 10q-18 0 -34 -11q-20 -12 -32 -36.5t-19 -53.5t-8.5 -58t1.5 -50q5 -39 19.5 -79t31.5 -79q8 -19 11.5 -40t2.5 -43q-46 17 -104 17q-30 0 -57 -9t-49.5 -24.5t-40.5 -37t-28 -45.5q-17 8 -33 20t-27 31q-13 -9 -13.5 -32t10.5 -50.5t33.5 -57t55.5 -51.5
q20 -17 46 -26.5t52 -14.5v-280q-102 31 -188 92t-149 144.5t-98 185t-35 214.5q0 137 52 258t142 211t211 142t258 52zM1035 836q0 -32 -24.5 -53.5t-59.5 -21.5t-59 21.5t-24 53.5q0 14 5 32q5 16 15.5 40t33.5 56q10 -13 28 -13q19 0 29 15q23 -33 34.5 -57t16.5 -41
q5 -19 5 -32z" />
    <glyph glyph-name="uniE045" unicode="&#xe045;" horiz-adv-x="1360" 
d="M971 798q3 -3 14 -3t19 18q7 17 -14 28q-48 22 -102 32.5t-114 10.5q-121 0 -197 -35q-20 -10 -14 -26q13 -27 41 -15q59 29 171 29q110 0 196 -39zM1107 193q-15 -141 -43 -163q-40 -31 -81 -31q-21 0 -35.5 1t-25.5 5q-14 29 -23.5 53.5t-17.5 47.5q-35 -5 -71.5 -7.5
t-75.5 -2.5q-41 0 -80 5t-80 16l-8 -54q-6 -42 -24 -55q-20 -13 -64 -7q-42 7 -64.5 14t-30.5 18q-10 11 -11 29q-2 10 -3.5 25.5t-4.5 36.5q-5 42 -28 67q-18 20 -40 32.5t-46 20.5t-50 13t-53 9q-29 4 -66 142q-34 138 12 211q20 -8 33.5 -12.5t24.5 -4.5q20 0 32 13
t21 32q5 10 9.5 20.5t9.5 21.5q4 12 9.5 25.5t11.5 29.5q15 33 28 33q-35 37 -41 80q-6 44 -1 52q83 20 185 -42q148 93 352 93q330 0 455 -195q23 8 47.5 0t32.5 -27q14 -33 5 -63.5t-32 -44.5q12 -54 12 -136q0 -83 -48 -164q-47 -79 -132 -137zM854 1020
q-35 -15 -72 -14.5t-70.5 14.5t-60 39.5t-39.5 58.5q-15 35 -14 72.5t14.5 71t39 60t58.5 38.5q35 16 72.5 15t71 -14.5t60 -39t38.5 -59.5q16 -35 15 -72.5t-15 -71t-39.5 -59.5t-58.5 -39z" />
    <glyph glyph-name="uniE046" unicode="&#xe046;" horiz-adv-x="1379" 
d="M1289 102q0 34 -23 34t-29 -34h52zM1265 171q78 0 78 -84v-15h-106q3 -35 40 -35q25 0 42 12h18v-34q-28 -16 -69 -16q-89 0 -89 62q0 63 24 86.5t62 23.5zM1157 1h-57v222h36q14 0 17.5 -5t3.5 -25v-192zM988 128q-9 0 -24 -5v-80q11 -7 23 -7q32 0 32 46t-31 46z
M957 18q-11 -17 -20 -17h-30v222h36q14 0 17.5 -5t3.5 -25v-41q20 19 48 19q26 0 45.5 -17.5t19.5 -65.5q2 -36 -12 -56.5t-34 -28t-41 -3.5t-33 18zM799 32q12 0 22 10v29q-3 1 -6 1h-13q-25 0 -25 -20t22 -20zM878 113v-112h-31q-19 0 -23 16q-17 -18 -48 -18
q-53 0 -53 51t66 51q17 0 32 -3v11q0 21 -27 21t-41 -11h-17v38q33 14 68 14q74 0 74 -58zM701 1h-57v222h36q14 0 17.5 -5t3.5 -25v-192zM612 1h-57v167h37q13 0 16.5 -6t3.5 -26v-135zM554 205q0 27 29 27q30 0 30 -27q1 -13 -8 -19.5t-21 -6.5t-21.5 6.5t-8.5 19.5z
M450 72q-25 0 -25 -20t21 -20q12 0 23 10v29q-3 1 -6 1h-13zM526 113v-112h-31q-19 0 -23 16q-17 -18 -48 -18q-53 0 -53 51t65 51q18 0 33 -3v11q0 21 -27 21t-41 -11h-17v38q33 14 67 14q75 0 75 -58zM189 168h55l35 -104h1l33 104h48v-13l-57 -154h-56l-59 154v13zM99 72
q-25 0 -25 -20t21 -20q13 0 23 10v29q-3 1 -6 1h-13zM101 171q74 0 74 -58v-112h-31q-19 0 -23 16q-17 -18 -48 -18q-53 0 -53 51t66 51q17 0 32 -3v11q0 21 -27 21t-41 -11h-17v38q33 14 68 14zM1319 401q-1 34 -25 34t-27 -34h52zM1366 349v-34q-28 -17 -69 -17
q-88 0 -88 85q0 42 23.5 64.5t61.5 22.5q79 0 79 -84l-1 -14h-106q3 -36 40 -36q22 0 42 13h18zM1107 428q-32 0 -32 -42q0 -43 30 -41q11 0 25 8v68q-7 7 -23 7zM1135 452q4 16 22 16h30v-155q0 -66 -92 -66q-41 0 -69 12v39h18q18 -12 52 -12t34 29v8q-14 -10 -33.5 -13.5
t-37.5 3t-30.5 24.5t-11.5 51q0 33 13 52t32 25.5t39 2.5t34 -16zM916 332q12 0 23 9v29q-5 1 -9.5 1.5t-9.5 0.5q-25 0 -25 -20t21 -20zM922 470q74 0 74 -58v-111h-31q-19 0 -23 15q-18 -18 -48 -18q-53 0 -53 51t66 51q17 0 32 -3v11q0 22 -26 22q-25 0 -42 -11h-17v38
q27 13 68 13zM663 408q0 18 -17 18q-18 0 -27 -4v-121h-57v167h39q14 0 17 -21q26 23 57 23q32 0 41 -24q25 24 60 24q44 0 44 -47v-122h-57v107q0 18 -18 18q-12 0 -25 -5v-120h-57v107zM531 301h-57v167h37q13 0 16.5 -6t3.5 -26v-135zM473 504q0 28 29 26q30 0 30 -26
t-21 -26t-29.5 7.5t-8.5 18.5zM303 431q-31 0 -31 -48t31 -48q32 0 32 48t-32 48zM367 321q-26 -23 -63 -23q-38 0 -64 23q-25 22 -25 63t25 63q26 23 64 23q37 0 63 -23t26 -63t-26 -63zM2 301v221h65l73 -128v128h51v-221h-55l-83 145h-1v-145h-50zM1040 1257h-733v-469
h733v469zM1093 1310v-575h-839v575h839zM819 1180q19 19 45 19t44 -19q19 -19 19 -45t-19 -45q-18 -18 -44 -18t-45 18q-19 19 -19 45t19 45zM361 835v65l125 219l174 -190l56 112l244 -206h-599z" />
    <glyph glyph-name="uniE047" unicode="&#xe047;" horiz-adv-x="2303" 
d="M2127 1490q29 0 54.5 -11t44.5 -29.5t30 -44t11 -54.5v-1179q0 -29 -11 -54.5t-30 -44.5t-44.5 -30t-54.5 -11h-1920q-29 0 -54.5 11t-44 30t-29.5 44.5t-11 54.5v1179q0 29 11 54.5t29.5 44t44 29.5t54.5 11h780q12 25 34 46.5t51.5 37.5t65.5 24.5t76 8.5t76 -8.5
t65.5 -24.5t51.5 -37.5t34 -46.5h686zM2093 136q26 0 44 18t18 44q0 25 -18 43t-44 18t-44 -18t-18 -43q0 -26 18 -44t44 -18zM2185 1351q0 24 -17 41t-41 17h-1920q-23 0 -40 -17t-17 -41v-934q0 -23 17 -40t40 -17h1920q24 0 41 17t17 40v934zM1286 1188l215 -215
l-215 -214v117h-176v-239q0 -17 -11.5 -28t-28.5 -11h-98q-17 0 -28.5 11t-11.5 28v239v85v54q0 23 15.5 38t37.5 15h301v120z" />
    <glyph glyph-name="uniE048" unicode="&#xe048;" horiz-adv-x="678" 
d="M632 875q6 -4 11 -10q5 -5 8.5 -14.5t3.5 -23.5t-3.5 -22.5t-8.5 -14.5q-5 -7 -11 -11h-4v-327q0 -21 -6.5 -39.5t-18.5 -32.5t-28 -22t-34 -8h-13l-47 -117h-300l-46 118q-34 3 -57 32t-23 69v586q0 40 22.5 68.5t56.5 33.5l47 120h300l48 -120h12q18 0 34 -8t28 -22
t18.5 -32.5t6.5 -39.5v-163h4zM142 1080q-11 0 -19 -12.5t-8 -29.5v-306h63l61 146l92 -256l91 418l66 -293h80v291q0 17 -7.5 29.5t-19.5 12.5h-399zM541 410q12 0 19.5 12.5t7.5 29.5v254h-113l-32 143l-82 -374l-105 290l-31 -74h-90v-239q0 -17 8 -29.5t19 -12.5h399z
" />
    <glyph glyph-name="uniE049" unicode="&#xe049;" horiz-adv-x="665" 
d="M593 1318q14 0 24.5 -10t10.5 -25v-155q0 -14 -10.5 -24.5t-24.5 -10.5h-33q-11 -45 -57 -78t-112 -42q-6 -68 3 -133.5t22.5 -133.5t26 -139.5t12.5 -149.5q0 -81 -18 -149t-39 -118q-25 -58 -56 -106h-1q-32 48 -57 106q-21 50 -38.5 118t-17.5 149q0 79 12.5 149.5
t26.5 137.5t23 133.5t2 137.5q-64 11 -108 42.5t-54 75.5h-41q-14 0 -24.5 10.5t-10.5 24.5v155q0 15 10.5 25t24.5 10h504zM342 186q11 0 19 17.5t8 43.5t-8 44t-19 18t-19.5 -18t-8.5 -44t8.5 -43.5t19.5 -17.5zM345 1032q52 0 93.5 17.5t56.5 43.5h-299
q14 -26 55.5 -43.5t93.5 -17.5zM579 1195h-476v-57h476v57zM579 1275h-476v-51h476v51z" />
    <glyph glyph-name="uniE050" unicode="&#xe050;" horiz-adv-x="606" 
d="M475 547l-29 -165l61 -134l1 -132h-446v132l56 123l-72 590v54v35v67h114v86h273v-86h111v-67h1v-89v-2l-19 -110h55v-302h-106zM521 814l-40 -232h66v232h-25h-1zM195 1117h203v51h-203v-51zM511 963v52h-430v-52l70 -571h261zM398 909q0 -7 -5 -12t-12 -5h-177
q-7 0 -12 5t-5 12t5 12t12 5h177q7 0 12 -5t5 -12zM398 827q0 -7 -5 -12t-12 -5h-177q-7 0 -12 5t-5 12t5 12t12 5h177q7 0 12 -5t5 -12zM398 745q0 -7 -5 -12t-12 -5h-177q-7 0 -12 5t-5 12t5 12.5t12 5.5h177q7 0 12 -5.5t5 -12.5zM338 254q0 22 -15.5 37.5t-38.5 15.5
q-22 0 -37.5 -15.5t-15.5 -37.5q0 -23 15.5 -38.5t37.5 -15.5q23 0 38.5 15.5t15.5 38.5z" />
    <glyph glyph-name="uniE051" unicode="&#xe051;" horiz-adv-x="1071" 
d="M820 980q62 -72 94 -164.5t32 -192.5q0 -104 -34 -198t-98 -168q-65 -75 -148 -114.5t-176 -39.5t-176 39.5t-148 114.5q-64 74 -98 168t-34 198q0 101 32 193t94 165l9 11l643 -1zM490 165q82 0 154 36t125.5 98t84.5 145.5t31 178.5q0 86 -26 165t-77 142h-584
q-50 -63 -76.5 -142t-26.5 -165q0 -95 31 -178.5t85 -145.5t126 -98t153 -36zM490 216q-71 0 -133.5 32t-109 87t-73.5 129.5t-27 158.5h687q0 -84 -27 -158.5t-73.5 -129.5t-109.5 -87t-134 -32zM1051 777q11 -116 -22 -245q-2 -11 -10.5 -17t-18.5 -6q-6 0 -8 1
q-12 3 -19 14t-3 23q19 76 21.5 138.5t-5.5 112.5t-24 88t-33 65.5t-33 44t-24 23.5h-201h-7l-464 3l67 43l-76 157h556l36 -142h109l8 -5q1 -1 11 -9t25 -24t33 -40t34 -57q19 -38 31 -80t17 -88z" />
    <glyph glyph-name="uniE052" unicode="&#xe052;" horiz-adv-x="1415" 
d="M1371 1308q16 -15 16 -36.5t-15 -37.5l-373 -384q53 -5 99.5 -29t81 -61.5t54 -86t19.5 -103.5q0 -58 -22 -109t-60 -89t-89 -60t-109 -22q-78 0 -142 39t-101 101h-364q-19 -54 -66.5 -89.5t-108.5 -35.5q-38 0 -72 14.5t-59.5 40t-40 59.5t-14.5 72q0 30 9.5 58t26 51
t40 40t50.5 26q13 61 62 112q57 58 129 69q10 33 35.5 60.5t61.5 47.5t81.5 31t95.5 11q48 0 91 -10t78 -28t60.5 -43.5t38.5 -55.5l434 446q15 16 36.5 16t36.5 -14zM744 849q-23 19 -61 31.5t-87 12.5q-41 0 -82.5 -11.5t-67.5 -32.5h298zM191 409q34 0 58 24t24 58
t-24 58t-58 24t-58 -24t-24 -58t24 -58t58 -24zM1150 570q0 36 -13.5 68t-36.5 56t-54 38t-67 15q-3 0 -6 -0.5t-6 -0.5h-16q-33 -4 -61 -19.5t-49 -38.5t-33 -53.5t-12 -64.5q0 -36 14 -68.5t38 -56.5t56 -38t69 -14t69 14t56 38t38 56.5t14 68.5zM978 656q18 0 33.5 -7
t27 -18.5t18.5 -27t7 -33.5t-7 -33.5t-18.5 -27t-27 -18.5t-33.5 -7t-33.5 7t-27 18.5t-18.5 27t-7 33.5t7 33.5t18.5 27t27 18.5t33.5 7z" />
    <glyph glyph-name="uniE053" unicode="&#xe053;" horiz-adv-x="906" 
d="M452 633q4 -3 7 -4q5 -2 4 4q-29 94 -32 185t16 171t57.5 145.5t94 108.5t125.5 59t151 -2q-59 -61 -107 -140t-86 -168.5t-65.5 -187t-44 -195t-22 -193t0 -182t22 -160t45.5 -128.5q6 -12 4 -20.5t-7.5 -13.5t-13 -5.5t-12.5 4.5l-63 134q-210 -3 -204 159
q47 21 94.5 4.5t89.5 -67.5q-7 22 -11 49.5t-5.5 56.5t-0.5 58.5t5 54.5q-88 -4 -161.5 29.5t-131.5 95t-98.5 146.5t-62 183.5t-23.5 207t19 216.5q111 -38 203 -111.5t158 -196.5q-16 -75 -9 -130.5t21 -92.5q17 -43 43 -74z" />
    <glyph glyph-name="uniE054" unicode="&#xe054;" horiz-adv-x="601" 
d="M192 1355h18q8 0 14.5 5t8.5 13l4 13t12.5 28.5t22 28t33.5 12.5h14q31 0 54 -37q9 -17 13.5 -30.5t4.5 -14.5q2 -8 8 -13t14 -5h23v-23h-249v18q0 5 5 5zM128 1272q13 13 31 13h292q17 0 32 -13q12 -12 12 -31v-15h-380v15q0 18 13 31zM566 240q0 -26 -18 -43.5
t-44 -17.5h-410q-26 0 -44 17.5t-18 43.5v219h146q10 0 17 6.5t7 16.5t-7 16.5t-17 6.5h-146v193h146q10 0 17 6.5t7 16.5t-7 17t-17 7h-146v201h146q10 0 17 6.5t7 16.5t-7 17t-17 7h-146v125q0 25 18 43t44 18h410q26 0 44 -18t18 -43v-878z" />
    <glyph glyph-name="uniE056" unicode="&#xe056;" horiz-adv-x="926" 
d="M610 658q-28 0 -52 -10.5t-42 -28.5t-28.5 -42.5t-10.5 -52.5t10.5 -52t28.5 -42t42 -28.5t52 -10.5q27 0 51.5 10.5t43 28.5t29 42t10.5 52t-10.5 52.5t-29 42.5t-43 28.5t-51.5 10.5zM461 1274q40 0 75 -15t61.5 -41t41.5 -61t15 -75t-15 -75t-41.5 -61.5t-61.5 -41.5
t-75 -15q-39 0 -74 15t-61.5 41.5t-41.5 61.5t-15 75t15 75t41.5 61t61.5 41t74 15zM854 326q-37 -45 -75 -73.5t-62 -38.5q-13 -4 -31 -8t-36.5 -4.5t-36.5 4t-31 16.5q-22 24 -20 46.5t14.5 41.5t30 33.5t26.5 23.5q-9 -2 -14 -2.5t-9.5 -1t-9.5 0t-14 0.5q-20 2 -40 8
t-40 18q-24 14 -34 27.5t-22 26.5q-8 8 -20 28t-23 40q-16 29 -33 40t-46 3q-6 -3 -13 -8.5t-11.5 -15.5t-5.5 -26t6 -38q10 -29 17.5 -44t11 -23t2.5 -11.5t-7 -8.5q-16 -12 -40 -18t-53 -9q-6 0 -19 -0.5t-22 -3t-8 -8.5t23 -17q8 -5 27 -12.5t46.5 -15t64.5 -12t81 -1.5
q59 3 85 -24.5t19 -71.5q-3 -19 -18.5 -35.5t-40 -28t-55 -17.5t-63.5 -3q-45 4 -81.5 12.5t-67 21t-56 27.5t-49.5 32q-5 3 -19.5 17.5t-29.5 39.5t-26 59t-8 76q1 21 8 48.5t17 57t22.5 59t25.5 53.5q17 31 36 70.5t46 75t64 59.5t90 24h297q34 0 60 -9t46.5 -25
t36.5 -37.5t31 -46.5q20 -31 40.5 -67t37.5 -70q6 -13 16 -38t13.5 -58.5t-6.5 -74t-45 -83.5z" />
    <glyph glyph-name="uniE057" unicode="&#xe057;" horiz-adv-x="1047" 
d="M335 95q-19 -5 -37.5 -5.5t-38.5 5.5v239q-32 7 -64 18t-57 33q-41 27 -69 63.5t-41.5 71t-13 62.5t16.5 39q14 -23 33.5 -37.5t40.5 -25.5q13 30 34.5 56.5t50 46t62 30.5t70.5 11t68.5 -5.5t60.5 -15.5q1 27 -3 53.5t-14 49.5q-22 48 -39.5 97.5t-23.5 97.5
q-4 25 -2.5 61.5t10 72.5t24 66.5t39.5 44.5q22 14 42 14q49 0 71 -46q23 -1 50.5 -3t54.5 -4.5t51.5 -5.5t41.5 -5q-25 17 -43 43.5t-13 60.5q0 3 15.5 1t35.5 -11.5t39 -26.5t26 -44q6 27 25 44t39 26.5t35.5 11.5t15.5 -1q4 -20 -2.5 -38.5t-19 -34.5t-28 -27.5
t-29.5 -16.5l2 -3q29 -23 59.5 -66t55.5 -93.5t41 -101t16 -89.5q0 -46 -16.5 -87t-45.5 -71.5t-68 -48.5t-83 -18h3h-7h4q-45 0 -84 18t-68 48.5t-45.5 71.5t-16.5 87q0 35 13.5 80t35 91t48.5 88t54 71q-38 -2 -81 -9.5t-83 -17t-73.5 -20t-51.5 -19.5q-12 -24 -13.5 -51
t6 -58.5t22 -68.5t33.5 -80q20 -44 37 -87.5t24 -85.5q5 -26 6 -56.5t-5 -60.5t-19.5 -59t-36.5 -52q-31 -36 -76.5 -59t-100.5 -26v-233zM916 961q0 8 -2 17.5t-5 21.5q-6 22 -20 51t-43 71q-12 -19 -36 -19q-22 0 -35 16q-29 -40 -41.5 -69.5t-18.5 -49.5q-6 -23 -6 -39
q0 -20 8 -39t21.5 -33t32.5 -22.5t41 -8.5t41 8.5t33 22.5t22 33t8 39z" />
    <glyph glyph-name="uniE058" unicode="&#xe058;" horiz-adv-x="1142" 
d="M678 1108q59 -24 115 -41q24 -7 50 -13t51.5 -9.5t50 -4t44.5 4.5q40 9 59.5 31.5t29.5 39.5q12 -1 14.5 -14t0 -33.5t-9 -46t-12 -52t-8.5 -52t1 -44.5q3 -15 5.5 -34.5t5.5 -41.5t6 -46t6 -46q6 -53 12 -111q-14 -9 -46.5 -16t-81.5 -13.5t-113 -12.5t-140 -11
q-213 -62 -383.5 -49t-305.5 88q8 57 31 97q10 17 23.5 32t32.5 25t43 12.5t55 -5.5q38 -10 79 -14.5t80.5 -1.5t76 14.5t65.5 33.5q13 10 26.5 29.5t27.5 44.5t27.5 54t25.5 58q28 68 56 148zM1124 406l-10 128q-80 -24 -174 -34.5t-201 -9.5q-218 -65 -397.5 -54
t-325.5 91l-14 -76q-4 -7 7.5 -15.5t33.5 -19.5l30 18l22 -37h-1q50 -17 116 -32t133.5 -23t127.5 -6.5t98 18.5l14 34l153 32l31 -59q14 -5 41 -6t60 1l25 28l25 -23q24 2 48 5.5t47 7.5l21 33l34 -22q26 6 42 11t14 10z" />
    <glyph glyph-name="uniE059" unicode="&#xe059;" horiz-adv-x="1160" 
d="M1002 190l-493 494l493 498l104 -103l-390 -394l390 -390l-104 -105v0zM190 192h-168v992h168v-992v0z" />
    <glyph glyph-name="uniE060" unicode="&#xe060;" horiz-adv-x="655" 
d="M516 192l-494 494l493 498l105 -103l-391 -395l391 -389z" />
    <glyph glyph-name="uniE061" unicode="&#xe061;" horiz-adv-x="647" 
d="M22 297l391 389l-391 395l105 103l493 -498l-494 -494z" />
    <glyph glyph-name="uniE062" unicode="&#xe062;" horiz-adv-x="1135" 
d="M22 295l390 390l-390 394l104 103l493 -498l-493 -494zM938 1184h168v-992h-168v992z" />
    <glyph glyph-name="uniE063" unicode="&#xe063;" horiz-adv-x="1217" 
d="M10 264h1197v-133h-1197v133zM1066 793l-457 -460l-458 460h300v483h158h158v-483h299z" />
    <glyph glyph-name="uniE064" unicode="&#xe064;" horiz-adv-x="1148" 
d="M1131 782v-601h-825v128l-35 -16l-258 542l745 356l195 -409h178zM306 782h628l-184 386l-715 -341l244 -512l27 13v454zM1115 765h-792v-567h792v567zM514 509q-29 0 -49.5 20t-20.5 49t20.5 49.5t49.5 20.5t49 -20.5t20 -49.5t-20 -49t-49 -20zM1008 282h-564l132 149
l77 -47l173 220l60 -113l47 43z" />
    <glyph glyph-name="uniE065" unicode="&#xe065;" horiz-adv-x="1449" 
d="M721 297q-24 0 -44.5 8.5t-35.5 23t-24 34.5t-9 43t9 43t24 35t35.5 23.5t44.5 8.5t44.5 -8.5t35.5 -23.5t24 -35t9 -43t-9 -43t-24 -34.5t-35.5 -23t-44.5 -8.5zM836 1020l-44 -453h-143l-41 453v127h228v-127z" />
    <glyph glyph-name="uniE067" unicode="&#xe067;" horiz-adv-x="1396" 
d="M553 510q-3 -9 -11.5 -29.5t-18 -45t-16.5 -51t-7 -48.5q0 -31 22 -46.5t51 -15.5q43 0 87 23t80 53t58.5 58.5t22.5 40.5q0 6 -4.5 10t-7.5 4q-5 0 -19 -15.5t-31.5 -33.5t-35 -33.5t-29.5 -15.5q-6 0 -9 7t-3 15q0 14 6.5 31.5t11.5 30.5l86 223q14 42 13 69.5
t-11.5 44t-28 23t-38.5 6.5q-23 0 -46 -6t-45 -16.5t-41.5 -23.5t-35.5 -28l-16.5 -16.5t-23.5 -24.5t-21 -25.5t-9 -19.5q0 -5 4 -9.5t11 -4.5q10 0 24 15.5t29.5 34.5t31.5 34.5t31 15.5q14 0 20.5 -6t0.5 -20zM692 940q0 -82 82 -82q18 0 35 6.5t30.5 19t22 30t8.5 38.5
q0 16 -7 30t-18.5 24t-26.5 16t-30 6q-18 0 -35 -7t-30.5 -19t-22 -28t-8.5 -34zM2 639q0 143 54 268.5t147 219.5t218.5 148t268.5 54t268.5 -54t219.5 -148t148 -219.5t54 -268.5t-54 -268.5t-148 -218.5t-219.5 -147t-268.5 -54q-95 0 -183 24.5t-164.5 69t-139.5 107.5
t-107.5 139.5t-69 164.5t-24.5 183z" />
    <glyph glyph-name="uniE068" unicode="&#xe068;" horiz-adv-x="1422" 
d="M24 707q0 143 54 268q54 126 147 219q92 93 218 148q126 54 268 54q143 0 269 -54q125 -54 219 -148q47 -47 84 -101.5t64 -117.5q53 -126 53 -268t-53 -268q-27 -63 -64 -117t-84 -101q-95 -93 -219 -147q-126 -54 -269 -54q-95 0 -182 24q-89 25 -165 69
q-75 44 -139 108q-32 32 -58.5 66.5t-48.5 72.5q-45 76 -69 164q-25 87 -25 183zM122 705q0 -124 46 -231q47 -108 127 -189q83 -81 189 -127q109 -47 231 -47q123 0 232 47q106 46 189 127q81 81 127 189q47 106 47 231t-47 232q-47 110 -127 188q-83 81 -189 127
q-109 47 -232 47q-122 0 -231 -47q-106 -46 -189 -127q-78 -78 -127 -188q-46 -108 -46 -232zM595 744q-76 -1 -125.5 -29t-80 -70.5t-44.5 -93.5t-17 -97t1.5 -81t11.5 -45h229h47h228q9 11 14.5 46t2.5 81t-17 97.5t-45 94t-81 70t-124 27.5zM540 569q-1 0 -1 1
q-5 1 -9.5 2t-9.5 3q-18 6 -37 15q-19 10 -31 21q-8 6 -15 12.5t-13 14.5l5 5t5 6q8 8 19 16q10 8 22 16q6 3 11.5 6t11.5 5l9 3q9 4 16 5l57 -49zM753 632q-4 -5 -8 -8.5t-8 -7.5q-17 -14 -37 -25q-8 -5 -15.5 -8t-15.5 -6q-11 -5 -21 -6q-1 0 -1 -1l-36 79l57 50
q4 -2 8 -2.5t8 -2.5t7.5 -3.5t7.5 -3.5l6 -3q4 -2 7 -4l6 -4q5 -3 9 -6t9 -7t8.5 -7t7.5 -8l8 -8q-2 -2 -3.5 -4t-3.5 -4zM594 1094q36 0 67.5 -13t55 -35t37 -52t13.5 -64t-13.5 -63.5t-37 -51.5t-55 -35t-67.5 -13t-67 13t-54.5 35t-37 51.5t-13.5 63.5t13.5 64t37 52
t54.5 35t67 13zM875 916h292v70h-292v-70zM875 798h292v70h-292v-70zM875 676h292v69h-292v-69z" />
    <glyph glyph-name="uniE069" unicode="&#xe069;" horiz-adv-x="2254" 
d="M337 432q39 0 72 -14t58 -38t39 -56.5t14 -69.5q0 -38 -14 -71.5t-39 -58t-58 -38.5t-72 -14q-38 0 -71 14t-58.5 38.5t-40 58t-14.5 71.5q0 37 14.5 69.5t40 56.5t58.5 38t71 14zM1810 434q37 0 70.5 -14t58.5 -38.5t39.5 -57.5t14.5 -70q0 -38 -14.5 -70.5t-39.5 -56.5
t-58.5 -38t-70.5 -14q-38 0 -71.5 14t-58.5 38t-39.5 56.5t-14.5 70.5q0 37 14.5 70t39.5 57.5t58.5 38.5t71.5 14zM424 180q-18 16 -40.5 24t-46 7.5t-46 -9.5t-40.5 -25q2 -3 3.5 -4t2.5 -3q8 -5 16 -11t19 -10q5 -2 10 -3.5t11 -3.5q5 0 11 -2t11 -2q7 0 13 2t11 2
q7 2 11 3.5t9 3.5q11 2 19.5 8.5t13.5 12.5q4 2 6 3.5t6 6.5zM1895 182q-18 16 -41 24t-46 7.5t-45.5 -9t-39.5 -24.5q2 -2 3.5 -4.5t3.5 -3.5q6 -5 14.5 -11.5t20.5 -9.5q3 -2 8.5 -3.5t10.5 -3.5q7 -2 12.5 -2h11.5h11.5t11.5 2q7 2 11 3t7 2q11 4 20.5 10t17.5 11
q1 3 8 12zM119 247q-11 1 -28 5.5t-34 12t-30 19t-15 28.5q-3 14 -4.5 31t-2.5 33q-1 18 0 38q5 8 9 18q3 8 5 19t0 23q-5 19 -1.5 54.5t9.5 70.5q7 41 17 87q68 117 182 193q-3 8 -5 14.5t-2 14.5q18 6 71.5 13t129 13t167 9.5t187 3t188 -6t170.5 -18.5q59 -9 117 -24.5
t113.5 -34t106.5 -39.5t95 -41q104 -48 197 -102q39 -15 88 -26.5t101 -26.5t103 -38t93 -61l33 -23q1 -13 5 -26q3 -11 7.5 -23.5t11.5 -21.5q27 -32 29 -92q0 -13 -0.5 -30.5t-0.5 -33.5v-39q-2 -6 -6 -11q-3 -5 -8 -8.5t-11 -3.5q-9 -2 -19.5 -3t-19.5 -2q-11 -1 -20 -1
q-26 -5 -57 -6.5t-69 -0.5q5 13 6 25t1 27q0 43 -17.5 82t-47.5 68.5t-70 46.5t-85 17t-84.5 -17t-69 -46.5t-47 -68.5t-17.5 -82q0 -13 1 -26t4 -25q-13 0 -54 0.5t-99.5 1.5t-128 2.5t-140 2.5t-135.5 1.5t-113 0.5q-79 0 -146.5 0.5t-117.5 1.5q-59 1 -107 3q3 18 3 37
q0 43 -17.5 82t-47.5 68.5t-70 46.5t-85 17t-84.5 -17t-69 -46.5t-47 -68.5t-17.5 -82v-9zM362 359q0 -2 -0.5 -4t-0.5 -4q0 -42 24 -73.5t62 -42.5v1q7 16 0 37q-1 6 -3 13.5t-4 15.5q-4 6 -9 11q-4 8 -7 11q-10 10 -20 18.5t-20 11.5q-5 2 -10.5 3t-11.5 2zM1832 364v-12
q0 -42 25 -73.5t63 -42.5q3 19 0 38q-1 6 -3.5 14.5t-7.5 14.5q-1 2 -2.5 6t-3.5 7t-4 5.5t-4 7.5q-8 7 -18 14.5t-20 11.5q-8 2 -12.5 3.5t-12.5 5.5zM313 359q-8 0 -13.5 -1.5t-11.5 -3.5q-5 -2 -11 -5t-10 -9q-9 -4 -11 -9q-13 -12 -17 -22q-12 -15 -14 -31
q-2 -11 -2.5 -21t0.5 -18q19 6 35.5 17t28.5 26.5t19 34t7 38.5v4zM1783 364q-5 -4 -11 -5.5t-11 -3.5q-7 -2 -12 -4.5t-14 -9.5q-2 -3 -9 -8q-5 -7 -9 -11.5t-8 -9.5q-5 -8 -7.5 -17t-3.5 -17q-4 -9 -4.5 -18t-0.5 -20q41 12 65.5 43.5t24.5 73.5v7zM1446 789l51 -161
q46 5 85 10q33 5 63 9.5t40 8.5q18 7 11 14t-21 17q-3 1 -15 6t-28.5 12.5t-36.5 17t-41 18.5q-48 22 -108 48zM944 897l45 -220l454 -46q8 21 -1 63t-31 109q-126 53 -242 76t-225 18zM858 903l-329 -12q-9 -18 -17 -35q-7 -15 -13.5 -31t-9.5 -30q-2 -14 -1 -27t3 -23
q2 -11 5 -22l391 -30z" />
    <glyph glyph-name="uniE070" unicode="&#xe070;" horiz-adv-x="1998" 
d="M912 1207q4 9 9 21q5 8 10.5 18t11.5 18q2 5 4.5 9t6.5 7q8 9 16 17.5t17 16.5t19 16.5t21 14.5q7 4 13 7.5t14 5.5q29 15 66 21q7 1 13.5 1.5t12.5 0.5q5 2 9 2.5t8 0.5h4h13q7 -2 14.5 -3t15.5 -2q16 -3 33 -8t33 -13q27 -11 48 -28q9 -7 17.5 -14t15.5 -15
q11 -11 20.5 -22.5t17.5 -24.5q5 -9 9 -17t7 -17q12 -23 17 -50v-1l36 25q20 13 43 8t38 -25l424 -637q14 -20 9 -43t-24 -37l-364 -249q-19 -14 -42.5 -9.5t-36.5 24.5l-414 618q-18 5 -35 12q-2 2 -5.5 3.5t-6.5 3.5q-35 -78 -81 -138.5t-100.5 -107t-116 -81
t-128.5 -60.5q-28 9 -52 21t-47 26l-413 -469q-62 -17 -84.5 6.5t-14.5 81.5l155 175l46 -13l-13 50l81 92l37 9l17 51l91 102q-20 24 -35.5 49.5t-30.5 54.5q22 85 57 163.5t90 147.5t133 127.5t185 102.5q23 -11 44.5 -22t41.5 -24zM1405 984q0 -2 -1 -3t-1 -3
q-5 -8 -11 -17.5t-14 -17.5q-7 -10 -15 -18.5t-16 -16.5h11t10 2q22 7 33 29t4 45zM1368 1128q0 13 -2 18q-2 14 -7 27.5t-11 26.5q-1 5 -3.5 9.5t-5.5 9.5q-5 8 -10 14.5t-11 13.5q-17 17 -33 29q-9 6 -17.5 11t-19.5 10t-23 9t-25 7q-6 1 -11.5 1t-12.5 2h-9h-3h-9
q-7 -2 -12.5 -2t-11.5 -1q-13 -3 -25 -6t-23 -10q-20 -8 -36 -19q-8 -5 -14 -11.5t-13 -12.5q-7 -8 -14.5 -16.5t-14.5 -18.5q-3 -6 -6.5 -12.5t-6.5 -12.5q-2 -8 -4.5 -14.5t-4.5 -14.5q38 -33 72 -73t60 -89q-7 -20 -13 -40.5t-13 -39.5q2 0 3 -0.5t2 -0.5q5 6 9.5 11.5
t11.5 9.5zM1353 1026h-12t-10 -2q-23 -9 -34 -30.5t-4 -45.5q3 3 6.5 6t6.5 6q19 19 35 46q5 5 7 13q1 1 2 3t3 4zM961 1104q0 -18 5 -38q6 -29 19 -54l30 -27q23 2 23 25q-17 26 -36 49.5t-41 44.5zM899 1157l-34 22t-34 20q-20 -6 -24 -25l88 -81v13q0 13 0.5 25.5
t3.5 25.5z" />
    <glyph glyph-name="uniE071" unicode="&#xe071;" horiz-adv-x="1381" 
d="M1199 296h-1014q-36 0 -68 14t-56 37.5t-37.5 55.5t-13.5 68v235q0 36 13.5 68t37.5 55.5t56 37.5t68 14h1014q36 0 68 -14t56 -37.5t37.5 -55.5t13.5 -68v-235q0 -36 -13.5 -68t-37.5 -55.5t-56 -37.5t-68 -14zM185 804q-20 0 -37.5 -7.5t-31 -21t-21.5 -31.5t-8 -38
v-235q0 -20 8 -37.5t21.5 -31t31 -21.5t37.5 -8h1014q20 0 37.5 8t31 21.5t21 31t7.5 37.5v235q0 20 -7.5 38t-21 31.5t-31 21t-37.5 7.5h-1014zM646 565h99v55h-99v-55zM861 460v282h77v-229h113v-53h-190zM424 670q-1 0 -6 -15t-10 -32q-7 -21 -15 -47h59zM472 742
l90 -264v-18h-75l-19 64h-91l-18 -64h-62v18l90 264h85z" />
    <glyph glyph-name="uniE072" unicode="&#xe072;" horiz-adv-x="1381" 
d="M1198 296h-1013q-36 0 -68 14t-56 37.5t-37.5 55.5t-13.5 68v235q0 36 13.5 68t37.5 55.5t56 37.5t68 14h1013q36 0 68 -14t56 -37.5t37.5 -55.5t13.5 -68v-235q0 -36 -13.5 -68t-37.5 -55.5t-56 -37.5t-68 -14zM185 802q-20 0 -38 -7.5t-31.5 -21t-21 -31t-7.5 -36.5
v-235q0 -41 28.5 -69.5t69.5 -28.5h1013q20 0 37.5 7.5t31 21t21.5 31.5t8 38v235q0 19 -8 36.5t-21.5 31t-31 21t-37.5 7.5h-1013zM439 571h1l54 170h101v-285h-76v196h-1l-65 -196h-43l-62 196h-2v-196h-62v285h102zM1116 741v-58l-126 -172v-2h126v-53h-208v56l124 173v2
h-116v54h200zM712 562h99v55h-99v-55z" />
    <glyph glyph-name="uniE073" unicode="&#xe073;" horiz-adv-x="1138" 
d="M873 94q-49 0 -94 16t-79.5 48t-55.5 80t-21 113q0 64 21 111.5t55.5 79t79.5 46.5t94 15q48 0 93 -15t79.5 -46.5t55.5 -79t21 -111.5q0 -65 -21 -113t-55.5 -80t-79.5 -48t-93 -16zM873 218q34 0 53 30.5t19 99.5q0 70 -19 100t-53 30q-35 0 -54.5 -30t-19.5 -100
q0 -69 19.5 -99.5t54.5 -30.5zM814 1082h159l-660 -1022h-159zM260 546q-49 0 -94 15.5t-79.5 47.5t-55.5 80t-21 113q0 64 21 112t55.5 79t79.5 46.5t94 15.5t94 -15.5t79.5 -46.5t55.5 -79t21 -112q0 -65 -21 -113t-55.5 -80t-79.5 -47.5t-94 -15.5zM260 671q34 0 53 29.5
t19 98.5t-19 99.5t-53 30.5q-35 0 -53.5 -30.5t-18.5 -99.5t18.5 -98.5t53.5 -29.5z" />
    <glyph glyph-name="uniE074" unicode="&#xe074;" horiz-adv-x="1413" 
d="M1409 836q2 -10 -0.5 -18t-11.5 -13l-396 -287l150 -477q3 -8 0.5 -16t-8.5 -13q-10 -4 -15 -4t-8 1t-6 3l-406 295l-405 -295q-6 -5 -14.5 -5t-14.5 5q-8 5 -10 13t0 16l150 477l-396 287q-16 10 -10 31q3 14 10.5 19t18.5 5h487l160 467q3 8 9.5 13.5t14.5 5.5
t14.5 -5.5t8.5 -13.5l160 -467h489q11 0 18.5 -5t10.5 -19zM351 121l357 260l354 -257l-131 418l356 258h-439l-141 409l-140 -409h-440l357 -258z" />
    <glyph glyph-name="uniE075" unicode="&#xe075;" horiz-adv-x="2720" 
d="M2351 19h-1987q-71 0 -133.5 27.5t-109 74t-73.5 109t-27 132.5v461q0 70 27 132.5t73.5 109t109 74t133.5 27.5h1987q71 0 133.5 -27.5t109 -74t73.5 -109t27 -132.5v-461q0 -70 -27 -132.5t-73.5 -109t-109 -74t-133.5 -27.5zM364 1010q-39 0 -74 -15t-61.5 -40.5
t-41.5 -59.5t-15 -72v-461q0 -40 15 -75t41.5 -61t61.5 -41t74 -15h1987q39 0 73.5 15t61 41t42 61t15.5 75v461q0 38 -15.5 72t-42 59.5t-61 40.5t-73.5 15h-1987zM2092 891v-113l-248 -337v-5h248v-103h-408v109l243 340v3h-227v106h392zM1299 540h195v108h-195v-108z
M872 753q-1 0 -4 -8t-7.5 -21t-10 -30t-10.5 -34q-13 -40 -28 -92h115zM966 893l177 -517v-35h-147l-37 125h-179l-35 -125h-122v35l177 517h166z" />
    <glyph glyph-name="uniE076" unicode="&#xe076;" horiz-adv-x="1427" 
d="M1286 779q17 -2 39 -13t42 -31t33.5 -49t13.5 -67v-377h-112v-120q0 -37 -15.5 -62t-39 -37t-51 -12t-51 12.5t-39 37t-15.5 61.5v120h-172v125q0 26 5 45t19 37t37.5 38.5t61.5 50.5q3 4 7 7.5t9 7.5q11 8 20.5 16.5t18.5 16.5q-1 -5 -1 -8.5v-8.5q0 -42 28 -70.5
t71 -28.5q19 0 36.5 7.5t30.5 21t20.5 31.5t7.5 39t-7.5 39.5t-20.5 32t-30.5 21t-36.5 7.5h-12.5t-11.5 -2q32 41 54.5 83.5t38.5 90.5zM569 783q-34 -29 -66 -61.5t-56.5 -76.5t-39.5 -102.5t-15 -137.5v-163h-56v-120q0 -36 -15.5 -60.5t-38.5 -37t-50.5 -13t-50.5 12
t-38.5 37t-15.5 61.5v120h-113v377q0 38 13.5 67t33 49t41 31t38.5 13l93 239l96 21q7 1 14.5 2t15.5 2q-8 -11 -12 -27l-88 -233h310zM234 470q20 0 38 7.5t31 21t20.5 31.5t7.5 39q0 43 -28 71.5t-69 28.5q-40 0 -68 -28.5t-28 -71.5q0 -21 7.5 -39t20.5 -31.5t30.5 -21
t37.5 -7.5zM1193 1040q0 -67 -12 -124.5t-36.5 -107.5t-61.5 -94.5t-87 -84.5q-41 -34 -73.5 -61t-55 -56t-34.5 -63t-12 -82v-110h-204h-126v148q0 81 17 134t46.5 91.5t68 69t81.5 67.5q35 30 62.5 53.5t47 48t30 54t10.5 72.5q0 46 -17.5 78.5t-50 53t-78.5 29.5t-104 9
q-22 0 -56 -1.5t-73.5 -5t-83 -9.5t-83.5 -14v214q37 29 86.5 51t104 36.5t110.5 22t107 7.5q118 0 207.5 -32t149.5 -89t90 -135t30 -170zM760 166q30 0 52 -21.5t22 -53.5v-144q0 -31 -22 -53t-52 -22h-208q-31 0 -53.5 22t-22.5 53v144q0 32 22.5 53.5t53.5 21.5h208z
" />
    <glyph glyph-name="whatsApp" unicode="&#xe077;" horiz-adv-x="1217" 
d="M6 5l84 310q-39 68 -59.5 143.5t-20.5 154.5q0 83 21.5 159.5t60.5 143t94 121t121.5 93t143 60t158.5 21.5q121 0 229 -44.5t193 -129.5q86 -86 131 -194.5t45 -229.5q0 -124 -47.5 -232.5t-128.5 -189.5t-190 -128t-232 -47h-1q-75 0 -147 18t-138 54zM338 196l17 -10
q58 -35 122.5 -52.5t130.5 -17.5h1q103 0 193 39t157.5 106.5t107 158t39.5 193.5q0 100 -37.5 190.5t-108.5 161.5t-161 108t-190 37q-103 0 -193.5 -39t-158 -106.5t-106.5 -158t-39 -193.5q-1 -71 18.5 -137.5t57.5 -126.5l12 -19l-51 -183zM907 471q-4 5 -11 8.5
t-18 9.5q-6 3 -20.5 10t-31 15t-31 14.5t-19.5 8.5q-11 4 -18.5 4t-15.5 -12q-4 -6 -10.5 -14t-13.5 -16.5t-13.5 -16t-9.5 -11.5q-12 -14 -32 -3q-11 5 -44.5 20t-76.5 53q-17 15 -30.5 31t-24 30.5t-18 25.5t-10.5 17q-7 11 -3 18t10 12q5 5 11 12t11 14q6 7 8.5 12.5
t6.5 13.5q4 7 3 13.5t-4 12.5q-2 3 -7.5 16.5t-12.5 30.5t-14.5 35t-12.5 29q-9 22 -17.5 23.5t-15.5 1.5q-7 1 -14 1h-15q-7 0 -17.5 -4t-21.5 -15q-5 -6 -14 -15.5t-17.5 -24.5t-15 -36t-6.5 -48q0 -28 8.5 -54t19.5 -47.5t20.5 -36t12.5 -18.5q3 -3 22 -29.5t52.5 -62
t79.5 -72.5t102 -61q26 -11 47 -18.5t38 -12.5q26 -8 50 -8.5t44 2.5q10 1 25.5 7.5t30.5 16.5t27.5 22t17.5 25q9 26 10 46t-1 25z" />
    <glyph glyph-name="uniFFFD" unicode="&#xfffd;" 
d="M537 961q27 17 60.5 25.5t78.5 8.5q57 0 101.5 -12t82.5 -37q68 -50 68 -160q0 -29 -6.5 -54.5t-22.5 -51.5q-9 -12 -27 -28t-47 -36l-30 -24q-14 -16 -23 -27.5t-14 -25.5q-3 -21 -6 -56h-136q2 39 6 66.5t15 46.5q11 28 61 70l33 30q24 13 33 29q18 24 18 55
q0 22 -4.5 38t-15.5 32q-11 14 -32.5 21.5t-47.5 7.5t-48.5 -9.5t-33.5 -27.5q-11 -17 -17 -38.5t-6 -39.5h-137q2 69 25.5 119t71.5 78zM612 416h150v-140h-150v140zM2 639q0 143 54 268.5t147 219.5t218.5 148t268.5 54t268.5 -54t219.5 -148t148 -219.5t54 -268.5
t-54 -268.5t-148 -218.5t-219.5 -147t-268.5 -54q-95 0 -183 24.5t-164.5 69t-139.5 107.5t-107.5 139.5t-69 164.5t-24.5 183zM168 637q0 -109 41.5 -205t112.5 -167t167 -112.5t205 -41.5t205 41.5t167.5 112.5t113 167t41.5 205t-41.5 205t-113 167t-167.5 112.5
t-205 41.5t-205 -41.5t-167 -112.5t-112.5 -167t-41.5 -205z" />
    <glyph glyph-name="_1" horiz-adv-x="0" 
 />
    <glyph glyph-name="_153" horiz-adv-x="0" 
 />
    </font>
</defs>
</svg>
