<svg width="46" height="47" xmlns="http://www.w3.org/2000/svg" xmlns:xlink="http://www.w3.org/1999/xlink">
  <defs>
    <path id="a" d="M0 17.39H25V.01H0z"/>
  </defs>
  <g fill="none" fill-rule="evenodd">
    <path d="M23 46.22a22.5 22.5 0 1 1 0-45 22.5 22.5 0 0 1 0 45z" stroke="#CD201F" fill="#CD201F"/>
    <g transform="translate(11 15)">
      <mask id="b" fill="#fff">
        <use xlink:href="#a"/>
      </mask>
      <path fill="#DFDEDA" mask="url(#b)" d="M15.83 8.88L9.91 4.96l6.75 3.49-.83.43"/>
      <path d="M9.91 11.9V4.97l6.75 3.49-6.75 3.46zm14.83-8.14s-.25-1.7-1-2.45C22.8.33 21.73.32 21.24.26 17.74.01 12.5.01 12.5.01h-.01s-5.25 0-8.74.25c-.5.06-1.56.07-2.5 1.05-.76.75-1 2.45-1 2.45s-.25 2-.25 4v1.88c0 2 .25 4 .25 4s.24 1.7 1 2.45c.94.98 2.2.95 2.75 1.05 2 .2 8.5.25 8.5.25s5.24 0 8.74-.26c.49-.05 1.55-.06 2.5-1.04.75-.75 1-2.46 1-2.46s.25-2 .25-4V7.76c0-2-.25-4-.25-4z" fill="#FFF" mask="url(#b)"/>
    </g>
  </g>
</svg>
